<?xml version="1.0" encoding="UTF-8"?>
<svg width="500px" height="500px" viewBox="0 0 500 500" version="1.1" xmlns="http://www.w3.org/2000/svg" xmlns:xlink="http://www.w3.org/1999/xlink">
    <!-- Generator: Sketch 55.1 (78136) - https://sketchapp.com -->
    <title>safari-pinned-tab</title>
    <desc>Created with Sketch.</desc>
    <g id="safari-pinned-tab" stroke="none" stroke-width="1" fill="none" fill-rule="evenodd">
        <g id="favicon">
            <rect id="Rectangle" fill="#000000" x="0" y="0" width="500" height="500" rx="58.2914573"></rect>
            <g id="noun_window_652779" stroke-width="1" transform="translate(49.246231, 49.246231)" fill="#FFFFFF">
                <path d="M331.088168,160.409319 L401.666514,120.084057 L200.836912,6.03015075 L0,120.084057 L70.5783463,160.409319 L0,200.486067 L70.5783463,240.811329 L0,280.888077 L200.836912,395.629054 L401.666514,280.888077 L331.088168,240.811329 L401.666514,200.486067 L331.088168,160.409319 Z M200.836912,22.8414801 L372.12974,120.120603 L200.836912,217.991777 L29.5367748,120.120603 L200.836912,22.8414801 Z M85.3357698,168.836912 L200.836912,234.825034 L316.338054,168.836912 L372.12974,200.522613 L200.836912,298.393787 L29.5367748,200.522613 L85.3357698,168.836912 Z M372.12974,280.924623 L200.836912,378.795797 L29.5367748,280.924623 L85.3357698,249.238922 L200.836912,315.227044 L316.338054,249.238922 L372.12974,280.924623 Z" id="Shape" fill-rule="nonzero"></path>
            </g>
        </g>
    </g>
</svg>