<?xml version="1.0" standalone="no"?>
<!DOCTYPE svg PUBLIC "-//W3C//DTD SVG 20010904//EN"
 "http://www.w3.org/TR/2001/REC-SVG-20010904/DTD/svg10.dtd">
<svg version="1.0" xmlns="http://www.w3.org/2000/svg"
 width="900.000000pt" height="900.000000pt" viewBox="0 0 900.000000 900.000000"
 preserveAspectRatio="xMidYMid meet">
<metadata>
Created by potrace 1.11, written by Peter Selinger 2001-2013
</metadata>
<g transform="translate(0.000000,900.000000) scale(0.100000,-0.100000)"
fill="#000000" stroke="none">
<path d="M2273 5235 c0 -1906 3 -3465 8 -3465 19 0 171 125 251 206 168 172
299 363 417 609 96 201 189 478 216 645 3 19 7 46 10 60 3 14 7 41 10 60 5 26
9 3992 5 5173 l0 177 -459 0 -459 0 1 -3465z"/>
<path d="M4792 6066 c-2 -34 -2 -34 50 -41 198 -25 390 -188 538 -458 126
-228 229 -536 286 -857 18 -103 19 -108 29 -190 3 -30 8 -66 10 -80 2 -14 7
-63 10 -110 4 -47 9 -101 11 -120 4 -45 5 -466 0 -550 -4 -77 -17 -217 -22
-244 -2 -10 -6 -44 -10 -75 -3 -31 -8 -65 -10 -76 -2 -10 -6 -37 -10 -60 -7
-49 -39 -206 -61 -295 -40 -169 -135 -429 -206 -565 -51 -98 -162 -256 -224
-319 -106 -107 -255 -186 -352 -186 -36 0 -36 0 -38 -45 -2 -42 -1 -45 20 -40
418 91 657 203 1002 467 35 27 248 238 288 286 282 334 462 769 507 1222 8 81
5 363 -5 445 -100 861 -687 1580 -1511 1851 -86 28 -265 73 -294 74 -3 0 -7
-15 -8 -34z"/>
<path d="M2320 1100 c-22 -14 157 -222 280 -324 121 -101 357 -239 550 -324
69 -30 212 -78 340 -114 l115 -33 1563 -3 1564 -2 -23 32 c-13 18 -28 38 -34
45 -5 6 -21 26 -35 45 -26 34 -133 143 -187 190 -47 41 -176 134 -230 167 -68
42 -268 145 -333 171 -30 12 -68 28 -85 35 -75 32 -318 100 -398 112 -51 7
-3075 10 -3087 3z"/>
</g>
</svg>
