<svg xmlns="http://www.w3.org/2000/svg" viewBox="0 0 286.39 192"><defs><style>.cls-1{fill:#6a747c;}</style></defs><title>adidas</title><g id="Layer_2" data-name="Layer 2"><g id="_Group_" data-name="&lt;Group&gt;"><path class="cls-1" d="M278.72,154.71h-12a8,8,0,0,0-1.74-4.17c-1.28-1.28-3.47-1.94-6.49-1.94s-5,.49-6.19,1.49a3.84,3.84,0,0,0-1.33,3.06c0,1.81,2.52,3.26,7.52,4.38a118.91,118.91,0,0,1,12.31,3.18c.66.25,1.24.46,1.65.66,5.08,2.4,7.6,6,7.6,10.91,0,5.95-2.48,10.29-7.4,13-.62.33-1.2.62-1.86.91a28,28,0,0,1-11.07,2.06c-6.24,0-11.28-1.12-15.12-3.31a14.28,14.28,0,0,1-5.43-5.3,14.91,14.91,0,0,1-1.8-7.46H250a5.94,5.94,0,0,0,2.31,5c1.53,1.2,4.13,1.82,7.81,1.82q4.15,0,6.2-1.74a3.87,3.87,0,0,0,1.57-3.06c0-1.94-2.47-3.47-7.4-4.54-7.35-1.57-12-2.85-13.88-3.76-5-2.35-7.52-6-7.52-11A14.42,14.42,0,0,1,243,144.59c3.31-3.51,8.26-5.25,14.83-5.25,5.41,0,9.75.79,13,2.31a4.54,4.54,0,0,1,.79.42,13.09,13.09,0,0,1,5.32,5.08A15.14,15.14,0,0,1,278.72,154.71Z"/><path class="cls-1" d="M272.32,125.46a1,1,0,0,0-.17-.62.89.89,0,0,0-.53-.41,5.93,5.93,0,0,0-.79-.13h-1.9v2.31h1.9a1.76,1.76,0,0,0,1.12-.33A1,1,0,0,0,272.32,125.46Zm1-1.24a1.82,1.82,0,0,1,.37,1.12,2,2,0,0,1-.62,1.49,2.38,2.38,0,0,1-1.61.7,2.08,2.08,0,0,1,.66.41l1.15,1.53.91,1.53h-1.49l-.7-1.24a7,7,0,0,0-1.15-1.65.54.54,0,0,0-.17-.12l-1-.29h-.74V131h-1.24v-7.76h2.68c.17,0,.33,0,.46,0a4.46,4.46,0,0,1,1.49.21A1.8,1.8,0,0,1,273.31,124.22Z"/><path class="cls-1" d="M276.82,127a6,6,0,0,0-.79-3,5.82,5.82,0,0,0-2.23-2.23,6.39,6.39,0,0,0-2.94-.78h0a6.36,6.36,0,0,0-2.93.78,5.79,5.79,0,0,0-2.24,2.23,5.86,5.86,0,0,0,0,6,5.59,5.59,0,0,0,2.19,2.19,5.92,5.92,0,0,0,3,.79h0a6,6,0,0,0,3-.79A5.56,5.56,0,0,0,276,130,6,6,0,0,0,276.82,127Zm1.2,0a7.06,7.06,0,0,1-1,3.55,6.25,6.25,0,0,1-2.64,2.64,6.92,6.92,0,0,1-3.56,1h0a6.9,6.9,0,0,1-3.55-1,6.26,6.26,0,0,1-2.65-2.64,7.05,7.05,0,0,1-.95-3.55,7.16,7.16,0,0,1,.95-3.64,6.65,6.65,0,0,1,2.69-2.64,7.81,7.81,0,0,1,3.51-.95h0a7.34,7.34,0,0,1,3.51.95,6.36,6.36,0,0,1,2.69,2.64A7.17,7.17,0,0,1,278,127Z"/><polygon class="cls-1" points="207.75 68.66 241.67 125.18 207.75 125.18 187.18 125.18 154.79 71.18 130.25 30.32 154.79 15.58 170.24 6.28 207.75 68.66"/><path class="cls-1" d="M232.37,164.42v23.18H221.09V185A24.13,24.13,0,0,1,207.87,189h-.13a24.54,24.54,0,0,1,0-49.08h.13a24.18,24.18,0,0,1,13.22,3.92v-2.68h11.28ZM221.09,167v-5.12a13.51,13.51,0,0,0-13.22-10.91h-.13a13.49,13.49,0,0,0,0,27h.13A13.55,13.55,0,0,0,221.09,167Z"/><path class="cls-1" d="M179.41,164.42v23.18H168.13V185A24.24,24.24,0,0,1,154.91,189h-.12a24.54,24.54,0,0,1,0-49.08h.12a24.28,24.28,0,0,1,13.22,3.92V125.18h11.28ZM168.13,167v-5.12a13.52,13.52,0,0,0-13.22-10.91h-.12a13.49,13.49,0,0,0,0,27h.12A13.55,13.55,0,0,0,168.13,167Z"/><polygon class="cls-1" points="154.79 102.95 168.09 125.18 154.79 125.18 113.64 125.18 83.41 74.86 82.08 72.67 83.41 71.89 122.11 48.58 154.79 102.95"/><rect class="cls-1" x="113.68" y="139.88" width="12.27" height="47.71"/><rect class="cls-1" x="113.68" y="125.42" width="12.27" height="10.78"/><path class="cls-1" d="M108.06,164.42v23.18H96.79V185A24.36,24.36,0,0,1,83.53,189h-.12a24.54,24.54,0,0,1,0-49.08h.12a24.4,24.4,0,0,1,13.26,3.92V125.18h11.28ZM96.79,167v-5.12a13.53,13.53,0,0,0-13.26-10.91h-.12a13.49,13.49,0,0,0,0,27h.12A13.56,13.56,0,0,0,96.79,167Z"/><polygon class="cls-1" points="83.41 106.58 94.56 125.18 83.41 125.18 40.07 125.18 33.95 114.97 73.98 90.93 83.41 106.58"/><path class="cls-1" d="M54.57,164.42v23.18H43.29V185A24.38,24.38,0,0,1,30,189H29.9a24.54,24.54,0,0,1,0-49.08H30a24.43,24.43,0,0,1,13.26,3.92v-2.68H54.57ZM43.29,167v-5.12A13.53,13.53,0,0,0,30,150.95H29.9a13.49,13.49,0,0,0,0,27H30A13.56,13.56,0,0,0,43.29,167Z"/></g></g></svg>