<svg xmlns="http://www.w3.org/2000/svg" viewBox="0 0 220 220"><defs><style>.cls-1{fill:#6a747c;}</style></defs><title>dell</title><g id="Layer_2" data-name="Layer 2"><path class="cls-1" d="M106.92,10.88h6.16c30,1.69,51.36,13.07,67.21,29s27.56,37,29.13,67.11v6c-1.52,30.59-13.44,50.78-29.13,67.21-16.48,15.6-36.73,27.43-67.31,28.93h-6.06c-30-1.69-51.36-13.07-67.21-29s-27.56-37-29.13-67.11v-6c.08,0,.12-.08.1-.2,1.5-30,13.28-51.26,29-67S77.13,12.52,106.92,10.88ZM87.43,25.1a86.27,86.27,0,0,0-16,6C56.81,38.29,44.76,48.63,36.33,61.88,28.11,74.82,21,91.46,22,113.28c.65,13.76,3.79,25.33,8.75,35.19C40.56,168,55.47,182.3,76.1,191a84.86,84.86,0,0,0,37.08,6.66c13.66-.65,25.49-3.72,35.29-8.65,19.21-9.66,34.36-24.57,42.75-45.14,4.25-10.4,7.45-22.42,6.76-37-1.31-27.58-12.53-46.28-27.34-60.54A85.55,85.55,0,0,0,144.1,29a87.62,87.62,0,0,0-37.28-6.66A92.28,92.28,0,0,0,87.43,25.1Z"/><path class="cls-1" d="M100.85,84.25c3.15,2.09,6.37,4.1,9.35,6.36-6.72,4.22-13.3,8.57-20,12.82,1,.78,2.17,1.41,3.18,2.19q10.1-6.4,20.18-12.82c3,1.86,6,3.77,8.75,5.87-6.72,4.25-13.22,8.72-19.88,13a37.9,37.9,0,0,0,3.28,2.09c6.89-4.21,13.6-8.6,20.38-12.92V86.74H141v28.13c4.21.23,8.85,0,13.22.1v13.22H126.11V114.77c-8.27,5-16.74,10.7-25.05,16-8.66-5.62-17-11.56-25.65-17.2-2.5,7.94-8.45,13.91-18.29,14.61-6.14.44-13.11-.33-20.18,0V86.74c8.84.59,18.54-1.18,25.55,1,6.2,1.92,10.59,6.87,12.63,13C83.76,95.32,92.27,89.75,100.85,84.25ZM51.15,100.06V115c3.55,0,6.25.22,8.35-1.39,3.12-2.4,3.75-8.36,1-11.53-1.84-2.12-4.94-2.56-9.25-2.29C51.13,99.78,51.14,99.92,51.15,100.06Z"/><path class="cls-1" d="M158.12,86.74H173V115h13.12v13.22H158V87C158,86.89,158,86.75,158.12,86.74Z"/></g></svg>