<svg xmlns="http://www.w3.org/2000/svg" viewBox="0 0 373.25 251.99"><defs><style>.cls-1{fill:#6a747c;}</style></defs><title>dreamworks</title><g id="Layer_2" data-name="Layer 2"><path class="cls-1" d="M169.22,171.31a29.28,29.28,0,0,1-2,2.62c-1,1.07-1.27,1.64-.59,2s1.27.86,2.74,1.85a34.82,34.82,0,0,1-3.14,8,25,25,0,0,1-3.43,5.44c-1.07,1.07-3.54,3.2-5.1,4.76a10.43,10.43,0,0,1-4.45,2.89c-2,.32-2.56-1.15-2.82-.79-1.21,1.65-.57,3.35,1.67,3.65.75.11,1.2.87,2.57,1.46a6.3,6.3,0,0,0,4.61-.49c1.16-.59,3.72-2.12,5.58-3.08s3.77-.89,5.92-1.07c1.79-.15,2-3.18,1.33-4.67-1-2.24-.21-3.9.91-6.55a22,22,0,0,1,4-5.55s.78-.4,2.09.55,1.52-.54,3.14-2.48c1.31-1.56,2.72-3.25,1.9-4-1-.9-.72-1.28-.72-1.28a14.49,14.49,0,0,1,2-2.06l-16.2-1.27"/><path class="cls-1" d="M220.85,134.67S233.21,125.49,238,99.6c2.9-15.64,1.68-30.78-5.26-45.83C222.54,31.62,198,16,174.42,13.52c39.27-8.91,74.63,14.11,88.12,43,13.13,28.12,12,57.56-8.31,85.06-4.2,5.67-28.32,33.16-71.14,31.71-3,.54-10.5-.95-12.81-1.84,0,0-3.88-1.48-8.58-3.53s-16-8.21-22.51-14.17a64.32,64.32,0,0,0,24.61,7.63c5.86-.71,36.62-6.12,57.05-26.73"/><path class="cls-1" d="M205.24,110.71c.35-.88-2.23.32-2.71.56-1.52.76-2.54-.5-2.29-1.19.3-.84.1-1.4-.52-1.31s-.63-.61-.34-1a.94.94,0,0,1-.87-.67c.75-.28.06-1.07-.24-1.19s-1-.24-1-.79a2.08,2.08,0,0,1,1-1.6c.55-.36.77-1,.16-2.11-.52-.94-.79-2.62-.3-3.22-1.1.12-1.64,1.45-1.64,1.45a3.89,3.89,0,0,1-.06-3.31,9.52,9.52,0,0,0-1,1.44c.79-7,9-9.9,11.2-10.38,4.06-.89,10.42-1.08,9.44,2.11,0,0,1.28-2.53-1.09-3.19,1.34-.06,2.44,1.44,1.89,2.41.67-.42,1.89-.72,2.31-.12-.67.06-2,.78-2.07,1.32,1.22-.24,2.48.47,3.41,4.58.43,1.86,1.16,7.88-1.46,9.87a4.86,4.86,0,0,0,.19-.84,2.23,2.23,0,0,1-2.38,1.45,2.28,2.28,0,0,0,0,1s2.42-.93,3.39-.57c0,0-1.1,2.17-1.59,3,1.59,0,6.37,3.08,6.68,10.24.73,1.2,1.58,8.15.73,11.28-6.76,21.49-56,33.84-64.36,31.13,0,0-2.37-1.8-.41-2.9.66-.37.2.2,1.64.6a3.49,3.49,0,0,0,2.82-.65c1.26-.7,3.81-1.3,5.59-2.56s3.12-1.55,5-5.08a8.88,8.88,0,0,0,.77-3c0-.26-.13-.14-1.86-.77-1-.36-1.77.11-1.77-1.64a25,25,0,0,1,.89-5.22c.19-.68.82-.77,2.59-.68a51,51,0,0,0,1.88-6.1,9.52,9.52,0,0,1-1.59.09c-1.12,0-1.59.78-3.41,1.38s-2.81.43-3.17-.72a29.26,29.26,0,0,0-1-3.37c-.35-.79-1.58-.72-1.34-1.56a2,2,0,0,1,1.1-1.44c.61-.6,2.07-.48,3.41-1.69s2.12.07,2.56,1a8.52,8.52,0,0,0,1.34,1.93c.43.54,1.95.18,2.92,0l.85-3.49a22.37,22.37,0,0,1-6-2c-2.8-1.44-4.87-2.77-6-2.65-3.92.43-2.91-.31-4.75-3.14-1.1-1.69-.85-1.8-2.19-2.41a1.23,1.23,0,0,1,.12-2.41c.72.12,1.95-.6,3-.84-.35-1.71.14-2.7,1.7-2.53-.37,1.09,1.22,3.37,3,4s2.56,3.61,2.56,4.21c1.7,1.69,9.64,1.57,11.35,1.57.88-1.35,1.18-1.72,4.51-1.72a6.47,6.47,0,0,1,5.43,2.35c1.49.47.26-.89,2.81-1.17s3.8-1.38,4.88-1.68,1.07-.95,1.86-1.61c.46-.39.84-1.29,1.49-1.62s.57-2.4.81-2.8m-21.5,38.7a14.22,14.22,0,0,0,0,5.17c1.56-.4,2.79-1.64,4-2.13s4.42-1.29,6.62-2.38c0,0,0-.42-.76-1.59-.59-.86-1.86-5.13-3.1-9.69,0,0-.46-3.21-.94-3-.33.14-.44,3.94-.6,5.58-.19,2-.1,1.33-.1,1.33s1.26.2,1.08.88c-.25.84-1.11,5.61-1.42,6.4-.25.63-.37.37-1.48.14C185.62,149.78,183.75,149.36,183.75,149.36Zm21.16-12.5c.63-1,.44-1.42.76-3.48a12.53,12.53,0,0,0-.88-5.15l-4.62,1.3C201.55,131.41,203.18,135.23,204.91,136.86Z"/><path class="cls-1" d="M85.47,57.89c27.89,3.38,87.59,55.55,88.12,71.18l-2.13.36c-6.57-23.45-69.64-69.11-86-68.94V57.89"/><path class="cls-1" d="M172.84,133.58c.19.41,1,2.49,1.07,2.84s2.4.77,1.91-.89a24.12,24.12,0,0,0-1.09-3l-1.88,1"/><rect class="cls-1" x="86.74" y="59.43" width="2.54" height="146.04"/><path class="cls-1" d="M69.56,229.81c0,3.85.45,4.1,4.27,4.31v1.39H56.31v-1.39c3.94-.21,4.38-.46,4.38-4.31V218c0-3.85-.44-4.1-4.16-4.32v-1.39H73.82c4.32,0,7.2.32,9.36,1.21s3.88,2.5,3.88,4.6c0,3.13-3,5-7.15,6,.77,1,2.83,3.46,4.43,5.1,1.88,1.89,3.1,3.1,4,3.82a7.6,7.6,0,0,0,3.27,1.49l-.11,1.25-2.38,0c-7.87-.11-9.7-1.18-11.92-3.25a35.87,35.87,0,0,1-4.6-5.74,2.72,2.72,0,0,0-2.33-1.29h-.72v4.28m0-6h.78a9.82,9.82,0,0,0,4.16-.6,5,5,0,0,0,3.1-4.57c0-3.42-3.38-4.57-5.54-4.57-2.33,0-2.49.11-2.49,1.53Z"/><path class="cls-1" d="M30.28,204.55c9.69,0,17.73,1.14,23,4.24,3.7,2.15,6.77,5.67,6.77,9.77,0,11.86-14.89,17-33.09,17H6.65v-1.86C12.4,233.38,13,233,13,227.9V212.17c0-5.14-.63-5.48-5.75-5.76v-1.86h23m-3.86,23.39c0,4.25,1.73,5,5.52,5,6.78,0,13.63-4.52,13.63-13,0-10.25-8.58-13.1-15.28-13.1a11.52,11.52,0,0,0-3.39.33c-.39.1-.47,1.19-.47,2.39Z"/><path class="cls-1" d="M92.72,218c0-3.85-.44-4.1-4.15-4.31v-1.39h26.26c.06.6.33,3.21.61,5.89l-2.44.11A5.68,5.68,0,0,0,111,215c-.89-.6-2.71-.82-5.65-.82h-.94c-2.11,0-2.22,0-2.22,1.25v6.88h2.77c4.76,0,4.93-.21,5.49-2.92h2.44v8.42H110.4c-.55-3.14-.72-3.35-5.49-3.35h-2.77v5.81c0,1.86.11,2.75,1.11,3.07a14,14,0,0,0,3.88.33c2.22,0,4.65-.22,5.87-1.07a11.77,11.77,0,0,0,3.78-3.46l1.37,0a32.92,32.92,0,0,1-1.94,6.35H88v-1.39c4.27-.21,4.71-.46,4.71-4.31V218"/><path class="cls-1" d="M129.29,234.09,131,234c2.05-.19,2.16-.54,1.44-1.82l-2-3.63h-9.09l-1.66,3.42c-.72,1.53-.72,1.89,1.83,2.07l1.61.1v1.39H110.18v-1.39c2.83-.25,3.66-.39,5.48-3.39l11.08-18.44,3.82-.5,3.77,6.74c2.38,4.24,4.77,8.45,6.87,12.09,1.78,3.11,2.77,3.28,5.49,3.49v1.39h-17.4v-1.39m-7-7.73h7.09l-3.49-6.81h-.16Z"/><path class="cls-1" d="M185.26,212.33v1.39c-4.21.25-4.43.39-4.27,4.14l.55,11.95c.17,4,.28,4.06,4.27,4.31v1.39H168.47v-1.39c4.16-.25,4.32-.36,4.27-4.31l-.17-12.55h-.22l-10.69,17.87h-3L148.52,218.5h-.11l-.38,7.92a25.68,25.68,0,0,0,.11,5.89c.22,1.32,1.44,1.63,5,1.82v1.39H139.49v-1.39c2.66-.14,3.71-.5,4-1.82a41.82,41.82,0,0,0,.89-6.25l.61-7.2c.39-4.49-.06-4.88-4.43-5.14v-1.39h13l9.7,14.12,8.48-14.12h13.47"/><path class="cls-1" d="M199.31,206.39l-2.52.19c-2.92.24-3.15.57-2.21,2.53l7.48,16h.16l10.32-20.31h5.52l12,20.3h.16c2.76-5.57,5.67-12.3,6.78-15.11s.79-3.19-2.6-3.43l-3-.19v-1.85H250.2v1.86c-4.41.38-5.12.53-7.8,4.72-.4.62-6.46,11.58-12.76,24.73h-6.07L212,216.5h-.16l-10.56,19.34h-6.07l-13.32-25c-2.13-4-3.55-4.15-7.17-4.43v-1.86h24.59v1.86"/><path class="cls-1" d="M273.63,223.63c0,7.63-8.09,12.41-18.73,12.41-11.19,0-18.45-5.24-18.45-11.8,0-5.78,6-12.45,19.22-12.45,10.14,0,18,4.78,18,11.84m-26.87-.6c0,6.45,3.77,11.16,9.2,11.16,4.77,0,7.37-3,7.37-9.41,0-7.17-4-11.12-8.76-11.12C250.31,213.65,246.76,216.78,246.76,223Z"/><path class="cls-1" d="M282.49,229.8c0,3.85.44,4.1,4.27,4.31v1.39H269.24v-1.39c3.94-.21,4.38-.46,4.38-4.31V218c0-3.85-.44-4.1-4.16-4.32v-1.39h17.29c4.32,0,7.2.32,9.36,1.21S300,216,300,218.14c0,3.14-3,5-7.15,6,.78,1,2.83,3.46,4.44,5.1,1.88,1.89,3.1,3.1,4,3.81a7.5,7.5,0,0,0,3.26,1.5l-.1,1.25-2.39,0c-7.87-.11-9.7-1.18-11.91-3.24a35.71,35.71,0,0,1-4.6-5.74,2.74,2.74,0,0,0-2.33-1.29h-.72v4.29m0-6h.78a9.82,9.82,0,0,0,4.16-.6,5,5,0,0,0,3.1-4.57c0-3.42-3.38-4.57-5.54-4.57-2.33,0-2.49.11-2.49,1.54Z"/><path class="cls-1" d="M315.15,229.8c0,3.85.44,4.1,4.37,4.32v1.39H302.24v-1.39c3.6-.21,4-.47,4-4.31V218c0-3.85-.44-4.1-4.32-4.31v-1.39h17.29v1.39c-3.66.21-4.1.46-4.1,4.31v5.56c4-2.92,7.42-5.56,10.63-8.27.78-.64,1.39-1.36-.11-1.46l-2.1-.14v-1.39h14.85v1.39c-3.16.21-4.87.39-7.76,2.21s-5.77,3.67-8.09,5.42c3.44,3.39,7.1,6.67,10.59,9.67,3,2.57,4,2.92,6.26,3.11v1.39H326.67c-2.11-2.28-7.37-7.53-11.41-11.41h-.11v5.71"/><path class="cls-1" d="M339.78,228.15c1.17,2.07,4.44,6,9.87,6,2.88,0,5.1-1.21,5.09-3.53,0-2.11-2.16-3.28-5.54-4.28l-.83-.25c-4.54-1.36-9.7-3.21-9.7-7,0-4,4.55-7.31,13.24-7.31a30.12,30.12,0,0,1,5.1.43c1.27.22,2.16.36,2.88.5.22,1.39.62,3.14,1.22,5.56l-2.44.25c-1.21-2.35-3.15-4.89-7.53-4.89-2.83,0-4.82,1.39-4.82,3.1s2.16,2.82,5.71,3.86l1.22.35c5.1,1.5,9.48,3.32,9.48,7.49,0,4.38-5.49,7.59-14.08,7.59a30.49,30.49,0,0,1-6-.6q-2.5-.53-3.49-.85c-.44-1.64-1.16-3.57-1.83-6l2.44-.46"/><rect class="cls-1" x="6.8" y="242.35" width="355.77" height="0.87"/></g></svg>