<svg xmlns="http://www.w3.org/2000/svg" viewBox="0 0 536.97 200.99"><defs><style>.cls-1{fill:#6a747c;}</style></defs><title>fieldmuseum</title><g id="Layer_2" data-name="Layer 2"><path class="cls-1" d="M93.72,185.58v-1.77h.73q3.66,0,5-1.5t1.71-6.23l2.48-37.74c0-.25,0-.5.06-.76s0-.61,0-1a5.17,5.17,0,0,0-1.14-3.79q-1.14-1.11-4.34-1.61v-1.77h12.67l21.61,46.26,22-46.26H167v1.77a10.9,10.9,0,0,0-4.59,1.23,2.94,2.94,0,0,0-1.14,2.55q0,.49,0,1.3t.12,1.75L164,175q.45,6.09,1.71,7.43t5,1.34H171v1.77H149.44v-1.77h.81q3.66,0,5.32-1.61t1.66-5.14q0-.62,0-1c0-.23,0-.45-.06-.64l-2.64-36.75-22,46.46-2.56.41-22.38-47-2.27,37.45c0,.16,0,.41,0,.74s0,.55,0,.66q0,3.5,1.42,4.88t5.08,1.46v1.77Z"/><path class="cls-1" d="M215.11,176.85a3.81,3.81,0,0,0,.87,2.88,11.87,11.87,0,0,0,4.2,1.72l.08,1.44-11,4h-.65v-6.16a60.33,60.33,0,0,1-9,4.7,18.06,18.06,0,0,1-6.5,1.46q-5,0-7-3.08t-2-11.37V158.63a3.66,3.66,0,0,0-1-2.84,11.24,11.24,0,0,0-4.26-1.72v-1.56L190,149.07h.57V171q0,7.92,1.4,10.17t5,2.24a12.44,12.44,0,0,0,4.69-1.16,51.28,51.28,0,0,0,6.88-3.76V158.63a3.62,3.62,0,0,0-1.32-3.24q-1.32-.88-5.91-1.32l0-1.56,13.16-3.44h.65Z"/><path class="cls-1" d="M229.56,176.28h1.54a11.38,11.38,0,0,0,3.28,5.78,8,8,0,0,0,5.52,2.06,7.08,7.08,0,0,0,5-1.78,6,6,0,0,0,1.93-4.62q0-3.4-6.74-7-2.62-1.36-4.08-2.24a13.94,13.94,0,0,1-4.68-4.06,8.82,8.82,0,0,1-1.46-5,8.35,8.35,0,0,1,3.31-6.76,13.06,13.06,0,0,1,8.48-2.68,18.1,18.1,0,0,1,4,.46,22.83,22.83,0,0,1,4.19,1.42v7.48h-1.39a10.24,10.24,0,0,0-2.81-5.42,7.24,7.24,0,0,0-5.09-1.82,6,6,0,0,0-4.29,1.52,5.12,5.12,0,0,0-1.63,3.92,5.83,5.83,0,0,0,1,3.26,6.72,6.72,0,0,0,2.7,2.38l1.42.68q11.87,5.84,11.87,12a10,10,0,0,1-3,7.46,10.41,10.41,0,0,1-7.6,2.94,24.18,24.18,0,0,1-5.17-.6q-2.73-.6-2.88-.6a.93.93,0,0,0-.67.3,2.91,2.91,0,0,0-.56.9l-1.46.08Z"/><path class="cls-1" d="M293.71,177.81a27.36,27.36,0,0,1-7.26,6.79,14.84,14.84,0,0,1-7.71,2.18,13.92,13.92,0,0,1-11-5.1q-4.37-5.1-4.37-12.95,0-8.25,4.73-13.51a15.5,15.5,0,0,1,12.06-5.26q8,0,14.32,11.13l.08.16,0,1.6h-25.2q-.12.92-.18,1.78t-.06,1.74q0,7.12,3.58,11.51a11.48,11.48,0,0,0,9.32,4.38,12.13,12.13,0,0,0,5.42-1.32,21.57,21.57,0,0,0,5.46-4.08Zm-24-16.69H287a11.41,11.41,0,0,0-2.83-6.6,7.86,7.86,0,0,0-11.31-.08A12.72,12.72,0,0,0,269.76,161.11Z"/><path class="cls-1" d="M337.77,176.85a3.88,3.88,0,0,0,.85,2.88,11.44,11.44,0,0,0,4.1,1.72l.08,1.44-10.76,4h-.63v-6.16a58.14,58.14,0,0,1-8.74,4.7,17.21,17.21,0,0,1-6.33,1.46q-4.83,0-6.79-3.08t-2-11.37V158.63a3.72,3.72,0,0,0-.95-2.84,10.82,10.82,0,0,0-4.15-1.72v-1.56l10.84-3.44h.55V171q0,7.92,1.37,10.17t4.89,2.24a11.86,11.86,0,0,0,4.57-1.16,49.47,49.47,0,0,0,6.71-3.76V158.63a3.66,3.66,0,0,0-1.28-3.24q-1.29-.88-5.76-1.32l0-1.56,12.82-3.44h.63Z"/><path class="cls-1" d="M381.75,165.84q0-7.76-1.4-10.06t-5-2.3a12.61,12.61,0,0,0-4.75,1.16,51.18,51.18,0,0,0-6.82,3.68v20.41q0,3,1.14,4.06t4.1,1.1v1.72H352.06v-1.72q3-.08,4.12-1.12t1.12-4V159a3.67,3.67,0,0,0-1-2.84,11.23,11.23,0,0,0-4.26-1.72v-1.56l11.13-3.76h.57v7a63.76,63.76,0,0,1,9-4.7,17.59,17.59,0,0,1,6.44-1.46,8.94,8.94,0,0,1,5.42,1.56,8.61,8.61,0,0,1,3.07,4.6,84.71,84.71,0,0,1,10-4.82,18.32,18.32,0,0,1,6.17-1.34q5,0,7.09,3T413,163.48c0,1.09,0,1.93,0,2.52s0,1.14-.06,1.64l-.36,6.64c0,.24,0,.56,0,1q-.12,2.56-.12,3.56a9.6,9.6,0,0,0,.2,2.22,3.53,3.53,0,0,0,.65,1.38,3.78,3.78,0,0,0,1.81,1,14.59,14.59,0,0,0,3.15.48l0,1.72H401v-1.72h.16A4,4,0,0,0,404.9,182q1.05-1.86,1.3-8.5l.16-5.64c0-.45,0-.93.06-1.42s0-1.21,0-2.14q0-6.28-1.44-8.6t-5-2.32a12.27,12.27,0,0,0-4.57,1.1,57.38,57.38,0,0,0-7.17,3.82v20.41q0,3,1.12,4.08t4,1.08l.08,1.72h-17l.08-1.72q3-.08,4.08-1.1t1.08-4.06Z"/><path class="cls-1" d="M194.22,111.14q0,6.42,3,9.25t9.79,2.83h1.63v3.59h-43v-3.59h1.71q6.75,0,9.76-2.83t3-9.25V38.25q0-6.49-3-9.36T167.28,26h-1.71V22.43h77.36l.56,20.94H239.7C238.86,37.71,238,34,236,32.09s-6.18-2.79-12.32-2.79H194.22V68.58h26.23q10.09,0,12.8-2.25t4-8.52H240V87.07l-3-.15q-1.11-7.33-3.53-9.7t-12.13-2.37H194.22Z"/><path class="cls-1" d="M267,75.8q0-3.71-1.86-5.37C264,69.32,258,69,253.86,68V65l24.26-7.31h1.32v56.08q0,5.75,2.05,7.68c1.37,1.29,6.39,2,10.26,2.08l.08,3.25H253.06v-3.25c3.87-.1,10.51-.81,11.9-2.12s2.09-3.86,2.09-7.64Zm5.1-55.66a8.24,8.24,0,0,1,5.58,1.93A6,6,0,0,1,280,26.79a5.89,5.89,0,0,1-2.24,4.68,9.1,9.1,0,0,1-11.15,0,5.85,5.85,0,0,1-2.31-4.64,6,6,0,0,1,2.28-4.72A8.38,8.38,0,0,1,272.15,20.14Z"/><path class="cls-1" d="M362.63,111.9q-7,8.79-14.14,13a29.3,29.3,0,0,1-15,4.16,27.32,27.32,0,0,1-21.5-9.74q-8.5-9.74-8.5-24.72,0-15.74,9.21-25.79t23.47-10Q351.84,58.72,364,80l.16.31.08,3.06H315.22q-.24,1.76-.35,3.4t-.12,3.32q0,13.6,7,22a22.5,22.5,0,0,0,18.15,8.37,24,24,0,0,0,10.55-2.52,41.82,41.82,0,0,0,10.63-7.79ZM316,80h33.55q-1-7.95-5.51-12.61a15.5,15.5,0,0,0-22-.15Q317.58,71.79,316,80Z"/><path class="cls-1" d="M385.25,33.24c0-2.55-.59-6-1.78-7.1s-6.62-1.41-11-1.68v-3l23.39-7.34h1.26v99.52q0,5.81,2,7.79c1.34,1.33,7,2,10.55,2.06l.22,3.29H371.67v-3.29c3.71-.1,10.24-.81,11.57-2.14s2-3.9,2-7.72Z"/><path class="cls-1" d="M471.08,31.64q0-3.9-1.84-5.54c-1.23-1.09-5.49-1.57-9.71-1.65l-.16-3,23.15-7.34h1.1v98.33q0,3.75,1.88,5.43c1.26,1.12,3.89,1.34,10.29-.46l.2,4-23.58,7.73h-1.33V117.71a65.55,65.55,0,0,1-13.48,8,30.59,30.59,0,0,1-11.83,2.6,24.91,24.91,0,0,1-19.82-9.21q-7.84-9.21-7.84-23.65,0-16.12,10.11-26.21t26.17-10.09a41.7,41.7,0,0,1,8.78.88,35.87,35.87,0,0,1,7.91,2.71Zm0,81.56V73.78a35.67,35.67,0,0,0-9.28-7.33,20.34,20.34,0,0,0-9.44-2.37A19.76,19.76,0,0,0,436.13,72q-6.27,7.91-6.27,20.75,0,12.23,6.19,19.94c4.13,5.15,9.66,9,16.08,9,3.08,0,6.71-1.63,9.81-2.8S467.58,115.65,471.08,113.2Z"/><rect class="cls-1" x="8.48" y="126.43" width="520.02" height="2.89"/><path class="cls-1" d="M66,120.85a4.6,4.6,0,0,0,1.26,3.62,6.13,6.13,0,0,0,4.09,1.11H72V127h-18v-1.41h.71a6.14,6.14,0,0,0,4.09-1.11,4.6,4.6,0,0,0,1.26-3.62V88.65H50.89q-3.89,0-5.13,1.3t-2,6.12H42.27l1.09-10.87h1.4a1.1,1.1,0,0,0,.7.69,7.44,7.44,0,0,0,2,.18h31a7.15,7.15,0,0,0,2.08-.2,1.25,1.25,0,0,0,.75-.67h1.34L83.8,96.08H82.34q-.75-4.82-2-6.12t-5.13-1.3H66Z"/><path class="cls-1" d="M110.24,113.78c0-.34,0-.69,0-1.06s0-.9,0-1.6q0-4.7-1.09-6.44a4.08,4.08,0,0,0-3.75-1.74,9.61,9.61,0,0,0-3.58.87,38.73,38.73,0,0,0-5.15,2.76v15.27q0,2.28.81,3a4.77,4.77,0,0,0,3.08.82l.06,1.29H87.88l0-1.29a4.78,4.78,0,0,0,3.09-.84,4.16,4.16,0,0,0,.83-3V90.63a2.8,2.8,0,0,0-.72-2.16,8.37,8.37,0,0,0-3.23-1.29V86l8.36-2.87h.49V105a46.53,46.53,0,0,1,6.74-3.52,13.48,13.48,0,0,1,4.87-1.09q3.77,0,5.33,2.25t1.56,7.88q0,1.23,0,1.9t0,1.24l-.25,4.88c0,.14,0,.33,0,.57q-.09,2-.09,2.76,0,2.34,1,3.07a7.32,7.32,0,0,0,3.87.79l0,1.29H105.46V125.7h.31a3.52,3.52,0,0,0,3.26-1.47q.9-1.47,1.06-6.26Z"/><path class="cls-1" d="M147.15,121.15a20.77,20.77,0,0,1-5.58,5.07,11.64,11.64,0,0,1-5.93,1.63,10.83,10.83,0,0,1-8.49-3.82,14.13,14.13,0,0,1-3.36-9.69,14.3,14.3,0,0,1,3.64-10.11,12.07,12.07,0,0,1,9.27-3.94q6.19,0,11,8.33l.06.12,0,1.2H128.42c-.06.46-.11.9-.14,1.33s0,.86,0,1.3a12.94,12.94,0,0,0,2.75,8.61,8.92,8.92,0,0,0,7.17,3.28,9.53,9.53,0,0,0,4.17-1,16.52,16.52,0,0,0,4.2-3.05Zm-18.42-12.49H142a8.43,8.43,0,0,0-2.18-4.94,6.16,6.16,0,0,0-8.69-.06A9.42,9.42,0,0,0,128.73,108.66Z"/></g></svg>