<svg xmlns="http://www.w3.org/2000/svg" viewBox="0 0 445.3 137.99"><defs><style>.cls-1{fill:#6a747c;fill-rule:evenodd;}</style></defs><title>glaceau</title><g id="Layer_2" data-name="Layer 2"><path class="cls-1" d="M270.85,28.88v3.59c0,3.88,5.2,7.19,9.58,7.19,12,0,20.34-10.95,20.34-22.75-11.81,2.75-29.92-2.68-29.92,12Z"/><path class="cls-1" d="M8.79,84c0,19.68,11.27,35.92,29.91,35.92H51.87c12.14,0,16.39-2.74,25.14-4.79V88.76H62.64v21.55c0,3.73-5.93,6-9.58,6H48.28c-15.4,0-23.94-14.66-23.94-31.13V81.57c0-13.68,6.26-24.91,17.46-28,22.1-6.16,24.77,8.24,31.61,10.08.79-3.37,2.4-6.09,2.4-9.58,0-3.89-19.12-7.18-25.13-7.18C25.77,46.85,8.79,59,8.79,84Z"/><path class="cls-1" d="M194.27,82.77v2.4c0,21.83,11,34.72,32.31,34.72h12c10.91,0,14.69-1.92,16.76-10.77-5.06,1.35-9.45,7.18-19.15,7.18-17.74,0-27.52-14.72-27.52-32.32,0-16.79,9.51-32.34,26.32-32.34,10.42,0,14.31,6.41,18.93,11.95l1.18-11.71-2.15-2.63c-7.65,0-9.11-2.39-16.75-2.39H235c-23.56,0-40.68,12.34-40.68,35.92Z"/><path class="cls-1" d="M375,52.83c0,30.62-5.1,68.25,25.13,68.25h12c30,0,23.93-35.7,23.93-62.26V49.24h-7.17v46.7c0,12-8.25,20.35-20.35,20.35-13.95,0-19.15-9-19.15-22.75L389,72l1.48-22.73H375v3.59Z"/><path class="cls-1" d="M160.88,66.76l1.13.42,9.87,25-21.33-.13,10.33-25.33Zm-27.64,53.13H138c4.56,0,8.53-17.06,9.57-21.55h23.94c5.2,0,6.87,16.44,9.59,21.7l10.75-1.34h4.79c-.14-1.66-13-33-14.75-36.73-2.89-6-11-35.11-16.37-35.11-4.9,0-14.66,30-16.92,35.76-3.27,8.3-13.82,30.55-15.4,37.28Z"/><path class="cls-1" d="M335.95,67.38l1.93-.18,10,25-21.35-.08,9.47-24.73Zm-26.79,52.5h4.78c7.27,0,4.71-21.55,12-21.55h24l6,21.71,10.75-1.34h6c-1.27-5.48-12-29.5-15.17-36.3-2.88-6.22-10.4-35.54-15.94-35.54h-1.2c-3.4,0-13.89,30.52-15.92,35.56-3.9,9.71-13.19,28.89-15.19,37.49Z"/><path class="cls-1" d="M86.57,119.89c3.74-.31,4.25-1.2,8.37-1.2l6-.28,25.11,1.48v-7.18H102.13V49.24H86.57v70.65Z"/><path class="cls-1" d="M264.88,119.89h38.29l0-7.35L290,113.91H279.24V88.76c0-2.76.83-3.59,3.59-3.59l4.82-.28,15.52,1.48V81.57c0-5.51-3.43-2.4-7.18-2.4H279.24V55.23l6-.28,17.92,1.48V49.24H264.88v70.65Z"/></g></svg>