<svg xmlns="http://www.w3.org/2000/svg" viewBox="0 0 394.13 109.92"><defs><style>.cls-1{fill:#6a747c;}</style></defs><title>gmc</title><g id="Layer_2" data-name="Layer 2"><path class="cls-1" d="M9.33,36.72V73.39c0,13.82,8.26,22.11,22.64,22.11h71c14.87,0,24.3-7.56,24.3-21.39v-29H69.14v18h38.18v7.36c0,4.78-2.63,6.09-6.1,6.09H36c-4.75,0-6.26-2.46-6.26-6.3V38.88c0-4.18,2.34-5.56,4.89-5.56h92.57V14.42H31.78C17.1,14.42,9.33,23.41,9.33,36.72Z"/><polygon class="cls-1" points="211.73 95.5 244.34 34.01 244.34 95.5 264.83 95.5 264.83 14.42 233.34 14.42 202.28 72.65 171.18 14.42 139.76 14.42 139.76 95.5 160.2 95.5 160.2 34.01 192.84 95.5 211.73 95.5"/><path class="cls-1" d="M384.81,95.49V75.1H303.36c-4.74,0-6.26-2.45-6.26-6.27V40.38c0-4.14,2.33-5.59,4.91-5.59h82.8V14.42H299.1c-14.67,0-22.42,9-22.42,22.3V73.39c0,13.82,8.22,22.11,22.6,22.11Z"/></g></svg>