<svg xmlns="http://www.w3.org/2000/svg" viewBox="0 0 695.97 139.01"><defs><style>.cls-1{fill:#6a747c;}</style></defs><title>jameson</title><g id="Layer_2" data-name="Layer 2"><rect class="cls-1" x="328.99" y="14.7" width="1.66" height="109.28"/><polygon class="cls-1" points="651.49 31.27 643.96 49.49 645.73 49.49 660.03 31.27 651.49 31.27"/><path class="cls-1" d="M385.33,75.42a27.13,27.13,0,0,1-12.2-2.81L370,75.42h-1.45l-1-17.82,1.68-.16c5.06,11.56,11,15.25,16.54,15.25,5.78,0,9.15-3.77,9.15-8.83,0-4.82-1.85-7.14-9.39-10.27-2.57-1-5.54-2.09-8-3.29-5.62-2.81-8.59-7.23-8.59-13.08,0-9.55,8.27-15.33,16.38-15.33a17.54,17.54,0,0,1,9.39,2.65l3.13-2.73h1.36l1.37,15.73-1.61.24c-4.41-8.83-9.15-13.16-14.37-13.16-4.58,0-7.63,3-7.63,7.79,0,3.77,1.61,6.66,7.3,9.15,2.81,1.28,6.11,2.41,9.07,3.85,6.5,3.13,9.55,7.22,9.55,13.16,0,10.59-8.91,16.85-17.58,16.85"/><path class="cls-1" d="M427.79,39c-5.62,0-9.07,6.26-9.07,17.26,0,10.84,3.69,17,9.39,17,5.86,0,9.07-6.26,9.07-17.25,0-10.83-3.45-17-9.39-17m-.32,36.53c-12.2,0-18.22-8.75-18.22-19.43,0-9.87,6.9-19.34,19.26-19.34,12.2,0,18.06,8.67,18.06,19.26,0,10-6.74,19.51-19.11,19.51"/><path class="cls-1" d="M464,75.18c-6.34,0-8.35-3.13-8.35-8.91v-24h-5.94V41.15l7.39-5.86L463,27.66h1.2V38.1h12.2v4.17h-12.2V63.07c0,3.21.48,5.13,2.09,6.26,1.37,1,3.21,1.29,5.86,1.29,1.28,0,2.89-.08,4.42-.17l.08,1.13A26.68,26.68,0,0,1,464,75.18"/><path class="cls-1" d="M501.48,42.84a17.54,17.54,0,0,0-8.35,2V71.41l4.49,1.68v1.12H479.49V73.1l5.06-1.68V22.93L479,19.32v-.8l13.81-3.77.32.24V43.08l.32.16c4.73-4.5,9.07-6.5,13.4-6.5,7.22,0,10.28,5.46,10.28,11.16V71.41l5.06,1.68v1.12H504V73.1l4.5-1.68V51.18c0-5.22-2.09-8.35-7.07-8.35"/><path class="cls-1" d="M550.05,50.62c-.32-7.54-2.49-11.64-7.23-11.64s-8.27,4.9-8.67,12.36l15.89-.72Zm-16,2.73c0,10.2,2.89,16.86,12,16.86,4,0,7.31-.8,12.12-2.57l.48,1c-4.89,4.25-10.35,6.91-15.49,6.91-11,0-18.23-7.55-18.23-18.7,0-11.48,8.67-20.07,18.46-20.07,10.6,0,15.73,7.14,15.65,16.62Z"/><path class="cls-1" d="M581.76,42.35a16,16,0,0,0-6.34,1.28V69.08a12.08,12.08,0,0,0,8.75,3.69c4.74,0,8.67-4.25,8.67-15.57,0-10-4.25-14.85-11.08-14.85m-1.36,33.15a54.62,54.62,0,0,1-13.57-2.09V22.93l-5.62-3.61v-.8l13.88-3.77.32.24V41.87l.32.16c2.81-2.81,6.66-5.3,11.64-5.3,7.63,0,14.53,7,14.53,18.46s-8.67,20.31-21.51,20.31"/><path class="cls-1" d="M623.9,76.71c-4,9.88-7.78,14.21-12.76,14.21-4.25,0-6.26-2.49-6.26-5.06a4.78,4.78,0,0,1,4.81-4.57c2.73,0,4.34,1.44,6.26,3.85a31.22,31.22,0,0,0,4.41-6.83l1.36-3L607.53,41l-4.9-1.93V38h19.58v1L617.08,41l8.67,23.52h.4l7.87-23-4.65-2.49V38h13.8v1l-5.22,2.65-14,35Z"/><path class="cls-1" d="M669.66,75.51a31.68,31.68,0,0,1-11.88-2.17l-.08-10.59,1.61-.16c4.33,7.62,7.63,10.51,11.88,10.51a5.69,5.69,0,0,0,6.1-6.1c0-4.18-4.25-5.78-8.83-7.63C663.4,57.2,658,54.8,658,48.13c0-6.34,5.62-11.4,13.81-11.4a34.37,34.37,0,0,1,9.71,1.45l.24,9.55-1.52.4c-3.93-6.5-6.5-9-10.2-9-3.37,0-5.46,2.25-5.46,5.14,0,4.17,4.33,5.86,8.91,7.71C678.58,54.07,684,56.48,684,63.31c0,7.46-6.58,12.2-14.37,12.2"/><path class="cls-1" d="M368.61,124h1.79V105.28h-1.79V124Zm8.25,0h1.7V108.08h.05L389.24,124h1.59V105.28h-1.69v15.4h-.05l-10.3-15.4h-1.92V124Zm24,0h1.79v-17h6v-1.66H394.86v1.66h6v17Zm11.86,0h11.69v-1.64h-9.89v-7.42h7v-1.61h-7v-6.34h9.37v-1.66H412.76V124Zm16.54,0h1.76v-8.39h4.64l4.57,8.39h2l-4.72-8.59c2.7-.5,4.46-2,4.46-5,0-3.28-2.32-5-6.49-5H429.3V124Zm1.76-10v-7.07h4.34c3.13,0,4.85.91,4.85,3.49s-1.74,3.58-4.82,3.58Zm17.19,10h1.69V108.08H450L460.62,124h1.59V105.28h-1.69v15.4h-.05l-10.29-15.4h-1.92V124ZM467,124h1.74l2-5.76h7.57l2,5.76h1.87l-6.62-18.76h-1.94L467,124Zm4.29-7.35,3.21-9.29h0l3.21,9.29ZM489.4,124h1.79v-17h6v-1.66H483.36v1.66h6v17Zm12.12,0h1.79V105.28h-1.79V124Zm15,.35c4.57,0,7.88-3.83,7.88-9.69s-3.3-9.69-7.88-9.69-7.88,3.84-7.88,9.69,3.31,9.69,7.88,9.69Zm0-1.61c-3.53,0-6.08-3-6.08-8.08s2.55-8.06,6.08-8.06,6.08,3,6.08,8.06-2.55,8.08-6.08,8.08ZM530.17,124h1.69V108.08h.05L542.53,124h1.59V105.28h-1.69v15.4h-.05l-10.3-15.4h-1.92V124ZM549,124h1.74l2-5.76h7.57l2,5.76h1.87l-6.61-18.76h-1.94L549,124Zm4.29-7.35,3.21-9.29h.05l3.2,9.29ZM569.11,124H580v-1.64H570.9v-17h-1.79V124Zm21.63,0h1.77v-8.39h4.65l4.57,8.39h2L599,115.37c2.7-.5,4.47-2,4.47-5,0-3.28-2.32-5-6.48-5h-6.26V124Zm1.77-10v-7.07h4.34c3.13,0,4.85.91,4.85,3.49S600,114,596.88,114Zm16.69,10h11.69v-1.64H611v-7.42h7v-1.61h-7v-6.34h9.37v-1.66H609.2V124Zm14,0h1.74l2-5.76h7.57l2,5.76h1.87l-6.61-18.76h-1.94L623.18,124Zm4.29-7.35,3.21-9.29h.05l3.2,9.29Zm15.4,7.35H653.8v-1.64h-9.14v-17h-1.79V124Zm15.93,0h1.79v-17h6v-1.66H652.76v1.66h6v17Zm16.13,0h1.79v-8.23L683,105.28h-1.92l-5.22,8.91-5.25-8.91h-1.94l6.26,10.45V124Z"/><path class="cls-1" d="M11.93,81.54l3.51-2.67c2.24,3.3,4.91,5.4,9.12,5.4,5.54,0,9.26-2.74,9.26-10.52V35.82h5v38c0,9.82-5.33,14.87-14,14.87C18.39,88.69,14.6,85.68,11.93,81.54Z"/><path class="cls-1" d="M47,79.08c0-7.29,6.24-12.62,25-15.5V61.69c0-5.12-2.67-7.57-7.5-7.57-5.82,0-10,2.45-13.81,5.82l-2.6-3c4.42-4.07,9.54-6.87,16.83-6.87,8.28,0,11.85,4.42,11.85,11.78V78.59c0,4.49.28,7.22,1.05,9.12h-5a16.5,16.5,0,0,1-.84-5.26A21.12,21.12,0,0,1,57.5,88.34C50.91,88.34,47,84.84,47,79.08Zm25-.56V67c-15.85,2.67-20.27,6.59-20.27,11.43,0,3.86,2.6,5.89,6.73,5.89A19.27,19.27,0,0,0,72.08,78.52Z"/><path class="cls-1" d="M86.76,50.76h4.84v5.82c3.72-3.65,8-6.52,13.53-6.52,6.24,0,9,2.73,10.17,6.66,3.86-3.65,8.49-6.66,14-6.66,7.57,0,10.66,4.28,10.66,10.94V87.71h-4.84V61.91c0-5.19-1.75-7.71-6.94-7.71-4.49,0-8.2,2.45-12.34,6.45V87.71h-4.84V61.91c0-5.19-1.75-7.71-7-7.71-4.42,0-8.2,2.45-12.34,6.45V87.71H86.76Z"/><path class="cls-1" d="M148.05,69.2c0-13.11,8.42-19.14,16.2-19.14,8.63,0,15.08,6.59,15.08,19.21v.91H152.89c.07,9.12,5.26,14.24,11.64,14.24,5.54,0,8.7-2.39,11.5-6.73l3,2.38c-3.23,5.19-7.78,8.42-14.8,8.42C155.63,88.48,148.05,81.82,148.05,69.2Zm26.58-2.88c-.49-7-3.86-12.2-10.45-12.2-5.33,0-10.31,3.86-11.22,12.2Z"/><path class="cls-1" d="M185.12,81.82,188.2,79a14.44,14.44,0,0,0,11.5,5.33c6.31,0,9.61-2.31,9.61-6.45s-2.95-5.68-10.17-7.36c-8.48-2.1-12.83-4.35-12.83-10.8,0-5.26,4.56-9.68,12.55-9.68,6.31,0,10.38,2.1,13.67,5.33l-2.73,3.23A14.74,14.74,0,0,0,199,54.05c-5.75,0-8,2.67-8,5.47,0,3.58,2.53,5,9,6.59,9.26,2.24,14,4.49,14,11.71,0,6.73-6,10.59-14.37,10.59C193,88.41,187.92,85.61,185.12,81.82Z"/><path class="cls-1" d="M220.11,69.27c0-12.34,7.64-19.21,16.76-19.21s16.69,6.87,16.69,19.21-7.64,19.22-16.69,19.22S220.11,81.54,220.11,69.27Zm28.61-.07c0-8.06-4.07-15-11.85-15-7.5,0-11.92,6.31-11.92,15,0,8.2,4,15.15,11.92,15.15C244.3,84.35,248.72,78.1,248.72,69.2Z"/><path class="cls-1" d="M261.79,50.76h4.84v5.82c3.58-3.51,8.28-6.52,14.09-6.52,7.29,0,11,4.07,11,10.94V87.71h-4.84V61.91c0-5.19-2.31-7.71-7.36-7.71-4.77,0-8.77,2.45-12.9,6.45V87.71h-4.84Z"/></g></svg>