<svg xmlns="http://www.w3.org/2000/svg" viewBox="0 0 419.98 161.99"><defs><style>.cls-1{fill:#6a747c;}</style></defs><title>kelloggs</title><g id="Layer_2" data-name="Layer 2"><path class="cls-1" d="M60.33,70.67a10.45,10.45,0,0,1,1.06,8.71c-3.74,14-15.1,28.75-6.95,43.09,4.21,7.34,16.94,7.34,22.15,1.72,3.94-4.2-3.79,1.06-5.16-6.2-2.82-15,11.81-30.81,4.36-48.22,19.43-13.18,41.24-24.08,53.34-46,1.45-2.59,2.12-6.14.76-9-1.68-3.45-5.13-5.65-9.24-4.62a15.82,15.82,0,0,0-7.86,5.11C98,32.22,84.11,51.58,63.48,65.09Z"/><path class="cls-1" d="M59.41,69.32C49.14,83.75,42.92,102.58,28,115a11.92,11.92,0,0,1-12.2,1.77c-4.23-1.77-5.29-7-3.74-10.9C20.53,84.19,46.92,76.55,53.56,54.1c.11-.54-.72-1.19-1.84-.83C39.72,57,37.19,73.76,24.81,77.46c-3,.86-6.48.42-8.46-2.33-3-4.23-.78-9.52,2-12.84,7.26-8.64,17.2-12.74,27-17.79,2.16-1.09,4.74-2.47,6.88-3.6,10.32-5.34,17.84-13.52,29.06-13.65a2.41,2.41,0,0,1,1.22,3.37C75.44,42,69.22,51.73,62.63,63.2c-.21.44-3.42,5.79-3.22,6.12"/><path class="cls-1" d="M368.77,38.86c4.91.29,7.34.75,9.62,6.51,1.09,2.62.63,4.08.13,6.61-.91,4.95-11.94,16.22-17.07,13-1-.7,1.07-3.25,2.18-5.13a3.17,3.17,0,0,0-.15-3.69c-5-4.51-4.51-8.27-3.22-11.73C361.33,41.61,366,38.73,368.77,38.86Z"/><path class="cls-1" d="M299.47,137.37c5-3.76,8.62-9.44,11.07-13.43.65-1.07-1,.16-3.53.88-3.09.88-15.57,9.34-14,14.27a6,6,0,0,0,1.32.86C296.4,139.77,297.83,138.6,299.47,137.37Zm74.78-34.26c6.33-4.65,9.7-15.79,7.4-23.79-4.46,1.69-12.34,8.33-17.59,13.41-6.28,6.09-1,1.32,2.25,2.21,3,.86,7.16,5.09,5.13,7.26C370.69,103,372.9,104.11,374.25,103.12Zm-33.52-39c3-.16,4,5.24,1.35,6.33-8.92,3.78-25,8.15-25.55,22-.1,1,2.12,3.61,5.31,2.25,9.63-4.23,12.11-15.74,20.42-22.31C347,68.7,351.74,74,350,78.79c-2.26,6.07-5.57,11.46-9.08,17-1.69,2.67,1.82,1.06,2.62.57,18.24-11.18,31-28.35,51.18-35.93a9.84,9.84,0,0,1,11,2.41,4.91,4.91,0,0,1,.91,5.48c-1.45,3.21-5.31,2.55-8.54,3.14a4.41,4.41,0,0,0-2.78,2.93c-2.2,7.34.46,15.13-1.82,22.38a32.83,32.83,0,0,1-12.61,17.61,22.48,22.48,0,0,1-20,2.93,11.52,11.52,0,0,1-5.32-3.79c-9.06-10.81,5.53-17.32-2.72-12.56-6.77,3.89-19.35,10.5-23.65,15.88-7.44,9.49-13.3,19.15-22,26.61-6.31,5.5-12.9,10.19-21.89,8.12a7.44,7.44,0,0,1-5.71-6.8c-.67-22,29-27.14,41.06-37.46-1.22-.59-7.08,3.82-12.12,3.58-2.51-.1-6.4-.54-8.38-3.66-3.38-5.44-2.67-11.13,0-16C307.85,76.55,323.33,65,340.73,64.13Z"/><path class="cls-1" d="M104.48,85.92c2.16-3,4.25-6.43,4.38-9.71,0-1.92-.07-2.25-2-2.12-3,.26-12.17,11-11.18,17.26.18,1,3.76-.41,4.12-.65A24.84,24.84,0,0,0,104.48,85.92Zm49-23.68c4.78-6.43,8.62-11.54,10.53-16.16a1.9,1.9,0,0,0-1.86-1.72C156,44.57,147.17,56.22,142.47,65c-1.66,3.06-4.64,10.87-4.17,12.66C139.78,78.74,149.32,67.79,153.43,62.24Zm40.47-1.71c6.51-8.8,14.68-21.32,11.08-21.74-4.1-.11-19.25,16.27-24.64,32.64-.36.93-.72,3.12-.36,3C182.6,73.45,189.94,65.92,193.91,60.53Zm-83.6,3a8.18,8.18,0,0,1,10.19,8.8c-1.11,12.34-7.37,19.72-19,28.43-1.11.89.2,1.72,1,1.74,8,.13,18.34-8.82,19.17-11.28,1.38-3.87,2.59-10.4,3.76-13.67,1.11-3.08,2.78-6.59,4.12-9.44,9.23-18.83,29.72-47,46.49-39.58,3.78,1.66,4.1,4.77,2.77,9.91-6.28,23.76-26.14,43.08-40,53.49-9.06,6.87,11.73,6,17.31,1.46,1.5-1.2,4.77-2.72,5.21-5C165.48,66,189.38,23,217.42,19.64c2.85-.34,5.5,1.06,5.94,5.52,1.09,11.6-5.14,18.14-10.61,27.45C203,69,190.47,79,178.37,91.45c-2.21,2.33-1.64,8.25,4.8,9,2.75.29,5.37-1.24,7.52-1.42-.23,10.35-10.43,18.78-20.2,16.42-4.59-1.11-9-5.34-8.85-9.16.2-5.79-.91-2.62-1.61-2-9.57,8.28-28.77,15.77-37,1.76-6.33,1.48-14.37,9.44-23.21,8.61-5.86-.57-11.67-2-14.81-6.2-1.14-1.55-5.18,1.86-7.88.42-3.68-2-2.6-4-1-5.84,1.79-2.07,7-2.16,7.29-6C84.86,81.77,95.13,67.25,110.31,63.51Z"/><path class="cls-1" d="M243.87,137.81c3.45-2.43,14-13.56,11.21-13.25-3.06.29-13.91,6.54-17.3,11.46-1.12,1.61-.47,3.12,1.19,3.4A7.8,7.8,0,0,0,243.87,137.81Zm43.17-68c-5,.8-19.4,11.26-24.28,19.3-1.07,1.77-1.72,4-.88,6a3.77,3.77,0,0,0,5,1.87c10.35-3.74,12.19-15.75,18.47-23.51.88-2.31,11-10.33,14.22-4.7,3.86,6.72-9.13,23-15.72,34-.54.88-.62,2.15.67,1.63,3.29-1.24,6.7-5,8.49-6.35,4.72,2.34-6.9,19-20.46,22.57-3.84,1-14.27,31-43.55,30.35-6.05-.13-7.18-8.19-4.33-13.46,7.57-14,27.66-21.66,37.36-24.59.16,0,3.51-3.09,4.05-4.69s-.31-.93-.8-.73c-6.67,3-12.84,4.39-17.87.75-10.24-7.34-.2-22.67,8.28-28.95-5.19.52-9.29.33-12.87-1.84-1-.67-2.55,2.72-2.86,5.26-1.45,13.3-11.1,24.44-21.82,30.9a17.27,17.27,0,0,1-14.94,1.58,13.77,13.77,0,0,1-9.06-11.67c-1.84-18.49,13.08-35.13,31.28-38.08,3.06-.5,5.32.68,6.74,4l-.72.7C223,73,216.74,81.57,214,87.89c-1.35,3.06-3.86,11.83,2.83,10.5,10.4-2.05,15.61-16.73,13.82-23.89l.15-2.29c2.78-1.89,5.79-4.44,6.36-4.44h.18c3.74-.26,11.18,3.06,16.52,3.51,13.41,1.2,20.2-8,31-5.65a6.33,6.33,0,0,1,2.38,1.53c.93.65,1.14,2.7.75,2.59Z"/><path class="cls-1" d="M60.33,70.67a10.45,10.45,0,0,1,1.06,8.71c-3.74,14-15.1,28.75-6.95,43.09,4.21,7.34,16.94,7.34,22.15,1.72,3.94-4.2-3.79,1.06-5.16-6.2-2.82-15,11.81-30.81,4.36-48.22,19.43-13.18,41.24-24.08,53.34-46,1.45-2.59,2.12-6.14.76-9-1.68-3.45-5.13-5.65-9.24-4.62a15.82,15.82,0,0,0-7.86,5.11C98,32.22,84.11,51.58,63.48,65.09Z"/><path class="cls-1" d="M59.41,69.32C49.14,83.75,42.92,102.58,28,115a11.92,11.92,0,0,1-12.2,1.77c-4.23-1.77-5.29-7-3.74-10.9C20.53,84.19,46.92,76.55,53.56,54.1c.11-.54-.72-1.19-1.84-.83C39.72,57,37.19,73.76,24.81,77.46c-3,.86-6.48.42-8.46-2.33-3-4.23-.78-9.52,2-12.84,7.26-8.64,17.2-12.74,27-17.79,2.16-1.09,4.74-2.47,6.88-3.6,10.32-5.34,17.84-13.52,29.06-13.65a2.41,2.41,0,0,1,1.22,3.37C75.44,42,69.22,51.73,62.63,63.2c-.21.44-3.42,5.79-3.22,6.12"/><path class="cls-1" d="M368.77,38.86c4.91.29,7.34.75,9.62,6.51,1.09,2.62.63,4.08.13,6.61-.91,4.95-11.94,16.22-17.07,13-1-.7,1.07-3.25,2.18-5.13a3.17,3.17,0,0,0-.15-3.69c-5-4.51-4.51-8.27-3.22-11.73C361.33,41.61,366,38.73,368.77,38.86Z"/><path class="cls-1" d="M299.47,137.37c5-3.76,8.62-9.44,11.07-13.43.65-1.07-1,.16-3.53.88-3.09.88-15.57,9.34-14,14.27a6,6,0,0,0,1.32.86C296.4,139.77,297.83,138.6,299.47,137.37Zm74.78-34.26c6.33-4.65,9.7-15.79,7.4-23.79-4.46,1.69-12.34,8.33-17.59,13.41-6.28,6.09-1,1.32,2.25,2.21,3,.86,7.16,5.09,5.13,7.26C370.69,103,372.9,104.11,374.25,103.12Zm-33.52-39c3-.16,4,5.24,1.35,6.33-8.92,3.78-25,8.15-25.55,22-.1,1,2.12,3.61,5.31,2.25,9.63-4.23,12.11-15.74,20.42-22.31C347,68.7,351.74,74,350,78.79c-2.26,6.07-5.57,11.46-9.08,17-1.69,2.67,1.82,1.06,2.62.57,18.24-11.18,31-28.35,51.18-35.93a9.84,9.84,0,0,1,11,2.41,4.91,4.91,0,0,1,.91,5.48c-1.45,3.21-5.31,2.55-8.54,3.14a4.41,4.41,0,0,0-2.78,2.93c-2.2,7.34.46,15.13-1.82,22.38a32.83,32.83,0,0,1-12.61,17.61,22.48,22.48,0,0,1-20,2.93,11.52,11.52,0,0,1-5.32-3.79c-9.06-10.81,5.53-17.32-2.72-12.56-6.77,3.89-19.35,10.5-23.65,15.88-7.44,9.49-13.3,19.15-22,26.61-6.31,5.5-12.9,10.19-21.89,8.12a7.44,7.44,0,0,1-5.71-6.8c-.67-22,29-27.14,41.06-37.46-1.22-.59-7.08,3.82-12.12,3.58-2.51-.1-6.4-.54-8.38-3.66-3.38-5.44-2.67-11.13,0-16C307.85,76.55,323.33,65,340.73,64.13Z"/><path class="cls-1" d="M104.48,85.92c2.16-3,4.25-6.43,4.38-9.71,0-1.92-.07-2.25-2-2.12-3,.26-12.17,11-11.18,17.26.18,1,3.76-.41,4.12-.65A24.84,24.84,0,0,0,104.48,85.92Zm49-23.68c4.78-6.43,8.62-11.54,10.53-16.16a1.9,1.9,0,0,0-1.86-1.72C156,44.57,147.17,56.22,142.47,65c-1.66,3.06-4.64,10.87-4.17,12.66C139.78,78.74,149.32,67.79,153.43,62.24Zm40.47-1.71c6.51-8.8,14.68-21.32,11.08-21.74-4.1-.11-19.25,16.27-24.64,32.64-.36.93-.72,3.12-.36,3C182.6,73.45,189.94,65.92,193.91,60.53Zm-83.6,3a8.18,8.18,0,0,1,10.19,8.8c-1.11,12.34-7.37,19.72-19,28.43-1.11.89.2,1.72,1,1.74,8,.13,18.34-8.82,19.17-11.28,1.38-3.87,2.59-10.4,3.76-13.67,1.11-3.08,2.78-6.59,4.12-9.44,9.23-18.83,29.72-47,46.49-39.58,3.78,1.66,4.1,4.77,2.77,9.91-6.28,23.76-26.14,43.08-40,53.49-9.06,6.87,11.73,6,17.31,1.46,1.5-1.2,4.77-2.72,5.21-5C165.48,66,189.38,23,217.42,19.64c2.85-.34,5.5,1.06,5.94,5.52,1.09,11.6-5.14,18.14-10.61,27.45C203,69,190.47,79,178.37,91.45c-2.21,2.33-1.64,8.25,4.8,9,2.75.29,5.37-1.24,7.52-1.42-.23,10.35-10.43,18.78-20.2,16.42-4.59-1.11-9-5.34-8.85-9.16.2-5.79-.91-2.62-1.61-2-9.57,8.28-28.77,15.77-37,1.76-6.33,1.48-14.37,9.44-23.21,8.61-5.86-.57-11.67-2-14.81-6.2-1.14-1.55-5.18,1.86-7.88.42-3.68-2-2.6-4-1-5.84,1.79-2.07,7-2.16,7.29-6C84.86,81.77,95.13,67.25,110.31,63.51Z"/><path class="cls-1" d="M243.87,137.81c3.45-2.43,14-13.56,11.21-13.25-3.06.29-13.91,6.54-17.3,11.46-1.12,1.61-.47,3.12,1.19,3.4A7.8,7.8,0,0,0,243.87,137.81Zm43.17-68c-5,.8-19.4,11.26-24.28,19.3-1.07,1.77-1.72,4-.88,6a3.77,3.77,0,0,0,5,1.87c10.35-3.74,12.19-15.75,18.47-23.51.88-2.31,11-10.33,14.22-4.7,3.86,6.72-9.13,23-15.72,34-.54.88-.62,2.15.67,1.63,3.29-1.24,6.7-5,8.49-6.35,4.72,2.34-6.9,19-20.46,22.57-3.84,1-14.27,31-43.55,30.35-6.05-.13-7.18-8.19-4.33-13.46,7.57-14,27.66-21.66,37.36-24.59.16,0,3.51-3.09,4.05-4.69s-.31-.93-.8-.73c-6.67,3-12.84,4.39-17.87.75-10.24-7.34-.2-22.67,8.28-28.95-5.19.52-9.29.33-12.87-1.84-1-.67-2.55,2.72-2.86,5.26-1.45,13.3-11.1,24.44-21.82,30.9a17.27,17.27,0,0,1-14.94,1.58,13.77,13.77,0,0,1-9.06-11.67c-1.84-18.49,13.08-35.13,31.28-38.08,3.06-.5,5.32.68,6.74,4l-.72.7C223,73,216.74,81.57,214,87.89c-1.35,3.06-3.86,11.83,2.83,10.5,10.4-2.05,15.61-16.73,13.82-23.89l.15-2.29c2.78-1.89,5.79-4.44,6.36-4.44h.18c3.74-.26,11.18,3.06,16.52,3.51,13.41,1.2,20.2-8,31-5.65a6.33,6.33,0,0,1,2.38,1.53c.93.65,1.14,2.7.75,2.59Z"/><path class="cls-1" d="M408.65,114.07a8.89,8.89,0,1,0-8.93,8.82A8.56,8.56,0,0,0,408.65,114.07Zm-10.37-.89v-2.31l1.43,0c.78,0,1.79,0,1.79,1s-.52,1.22-1.42,1.22Zm0,1.64h.94l2.2,4h2.41l-2.41-4.17a2.2,2.2,0,0,0,2.28-2.44c0-2.21-1.45-2.95-3.89-2.95h-3.56v9.55h2Zm7.78-.75c0,4.09-2.91,6.79-6.35,6.79v0c-3.5,0-6.33-2.7-6.3-6.79s2.83-6.77,6.33-6.77S406.06,110,406.06,114.07Z"/></g></svg>