<svg xmlns="http://www.w3.org/2000/svg" viewBox="0 0 424 182">
  <defs>
    <style>
      .cls-1,.cls-2{fill:#494949;}.cls-2{fill-rule:evenodd;}
    </style>
  </defs>
  <g id="Layer_2" data-name="Layer 2">
    <path class="cls-1" d="M71 84.36c-15.42 1.15-35.14 4-35 9.41.17 5.65 14.7 16.5 33.78 23.57.91-11.56 1.13-23.81 1.22-32.98zM14.56 26.14c-5.08.15-8.91-2.07-9-5.17-.07-2.27 4.89-9.34 7.92-10.49 2.07-.78 12.14-4.61 28.93-5.11a169 169 0 0 1 25.71 1.9c51.94 7.7 106.46 47.3 107.51 82.43.71 23.9-19.94 46.32-60.24 47.52a103.7 103.7 0 0 1-29.48-3.35c-.19 5.87.24 9-8.08 9.22-5.09.15-7.07-8.09-7.82-14.8C45.67 117.5 31 100 30.81 93c-.31-10.26 18.43-18.86 40.35-22.26.31-8.53 1.75-30.26 6.26-30.4 1.81-.05 5.56 4.15 7 10.57 1.29 5.84 1.42 16.48 1.43 18.38l1.65-.06c30.76-.91 49.19 8.7 49.53 20.09.26 8.83-7.55 13.35-11.65 13.47s-8.91-2.21-8.94-3.48c-.07-2.43 8.75-3 8.63-6.93-.18-5.93-24.63-8.53-39.7-8.62 0 5.11-.09 11.27 0 15.41.12 4 .37 14.26.49 22.84a88.31 88.31 0 0 0 20.78 2c16.24-.48 53.35-6.4 52.52-34.28C158 50.83 81 15.05 39.78 16.28c-16.24.48-26 2.22-25.94 3.82 0 1.06 7.91 1.47 8 3.57s-4.5 2.39-7.28 2.47z"/>
    <path class="cls-2" d="M187.39 68.7C190 68.62 193.85 75 194 79s1.07 24.78 1.35 30.77a90.78 90.78 0 0 1-.31 14.39c-.39 2.66-1.36 4-5.91 4.1s-6.68-2.58-7.07-6.6-.73-15.41-.53-21.11.47-16.63 1.21-23.46 2.54-8.33 4.65-8.39zM213.79 22c-.76-1.89-3.3-5.71-12.35-5.44-19.74.59-34.92 15.21-34.58 26.73a14.47 14.47 0 0 0 4.56 9.71 10.17 10.17 0 0 0-.74 3.86c.06 2 3.07 7.28 5.38 7.22 2-.06 3.29-1.89 5.18-4.86a24.14 24.14 0 0 0 9 1.8c18.56-.55 35.4-17.94 35.07-29.07-.18-5.16-3.5-10.11-11.52-9.95zm-28 27.64c2.28-3.23 14.13-19.09 26.34-19.45 3.58-.11 4.53 2.11 4.6 4.56.11 3.81-6.8 15-22.36 15.42a44.69 44.69 0 0 1-8.6-.56zm-9.66-5.26a4.79 4.79 0 0 1-.58-2.36c-.08-2.55 4.32-12.32 15.4-13.12a47 47 0 0 0-8.5 7.58 79 79 0 0 0-6.33 7.87zM235.54 67.63c10.87-.32 24.48 1.09 24.58 4.56.06 2-1 6.28-6.8 6.86-6.84.69-41.33 2.16-41.21 6.42.07 2.25 10.43 2.75 19.94 3.33 9.77.59 25.45 1 25.92 16.77.37 12.48-4.35 15.12-6.48 16.11-2.7 1.26-11.76 4.71-18.72 4.92-20.95.62-29.59-11.42-29.77-17.53-.16-5.43 5.43-10.25 14.83-10.53s23.95 3.11 24.06 7c.09 3.13-6.33 4.74-9.16 4.83-12.82.38-12.19-4.83-19.59-4.61-4.21.13-10.12 9.07 11 8.44 18.8-.56 24.49-6.75 24.39-10.08-.13-4.4-13.62-6.55-21.42-7s-19.51-.35-23.5-2.88-3.43-8.24-2.05-13c2.88-9.84 23.11-13.24 33.98-13.61zM272.64 71.72c7.34-.22 22.73 33.07 25.33 33s.67-7.78-1-16.28c-3.71-19.24-9.49-29.16-4.06-29.32 4-.12 17.18 12.62 17.91 37.28.34 11.45-1.27 26.44-11.65 26.75-9.84.29-21-30.77-23.59-30.7-1.37 0-1.49 19.25-1.85 25s-2.38 8.89-5.61 9c-4.89.14-7-4.54-7.32-13.79s2.79-40.66 11.84-40.94z"/>
    <path class="cls-1" d="M347.3 89.73c3.48-.1 6.54-.68 6.24 3.83s-.5 6.33-4.12 6.44l-18.58.55c-.61 2.07-2.2 7.39-2.92 9.64-.9 2.82 1.93 2.2 5.57 1.16s13.53-2.9 17.59-3 7.1 6.35 4.76 8.58-14.9 12.84-28 13.23c-5.63.17-13.27-4.75-13.53-13.56-.14-4.66 1.73-10.92 3.53-15.78-.44-.28-.77-.92-1-2.32-.58-3.17-2-6.65 3.26-7.25l1.57-.15 4.36-9a16 16 0 0 1-4.47-1.21c-3.2-1.53-5.7-5.46-5.75-7.23-.11-3.87 28.23-6.18 34.79-6.37 7-.21 9 1.15 11.3 4.37s3.1 5.5 3.1 6.34-.79 3.06-9.31 3.31c-4.36.13-11.4.86-18.16 1.11l-2.94 7.84c6.56-.26 12.71-.53 12.71-.53z"/>
    <path class="cls-2" d="M366.51 116.53c-7.61 15-12.73 30.92-12.38 42.9.4 13.49 8.69 18.53 11.21 18.45s2.64-4.07 3.1-7a200.16 200.16 0 0 1 12-44.33 21.39 21.39 0 0 0 5.8.68c15.43-.46 33.32-18.9 32.73-38.53-.31-10.37-4.27-17.72-10.91-17.52-9.72.29-23.69 15-34.9 33.41-1-7.48 4.9-19 9.93-27.05 3.53-5.66 2.91-12.38 1.45-12.34-2.06.06-22 16.91-21.28 40a22.12 22.12 0 0 0 3.25 11.33zm20.59-4.67c9.29-18.17 18.87-28.53 22.24-28.63 5.84-.17.9 26.26-22.24 28.63z"/>
  </g>
</svg>
