<svg xmlns="http://www.w3.org/2000/svg" viewBox="0 0 487.97 115"><defs><style>.cls-1{fill:#6a747c;}</style></defs><title>microsoft</title><g id="Layer_2" data-name="Layer 2"><path class="cls-1" d="M3.7,6.19H52.52q0,24.41,0,48.82H3.7V6.19Z"/><path class="cls-1" d="M57.51,6.19h48.82q0,24.41,0,48.82H57.51q0-24.41,0-48.82Z"/><path class="cls-1" d="M443.93,24.79c4.5-2.93,10.31-3.2,15.39-1.81,0,3,0,6,0,9-2.41-1.06-5.25-1.75-7.78-.71A6.17,6.17,0,0,0,448,36.25a66.44,66.44,0,0,0-.2,7.9h15.45c0-3.34,0-6.69,0-10,3.5-1,7-2.11,10.45-3.16,0,4.4,0,8.81,0,13.22,3.48,0,7,0,10.45,0v8.57c-3.5-.14-7,0-10.49,0,0,4.93,0,9.86,0,14.79.06,2.73-.15,5.47.17,8.2.19,1.6.78,3.38,2.28,4.21,2.52,1.41,5.71.79,8-.75v8.66a20.64,20.64,0,0,1-9.65,1.48,11.74,11.74,0,0,1-8.32-3.82c-2.33-2.78-2.93-6.55-3-10.07,0-7.56,0-15.13,0-22.7H447.84q0,17.81,0,35.62H437.28q0-17.8,0-35.6c-2.45,0-4.9,0-7.35,0,0-2.82,0-5.64,0-8.46,2.44-.06,4.88,0,7.32,0,.18-3.75-.39-7.6.73-11.25a14.4,14.4,0,0,1,6-8.13Z"/><path class="cls-1" d="M217.88,25.41a6.46,6.46,0,0,1,5.84,2.07,6,6,0,0,1,.73,6.86,6.57,6.57,0,0,1-7,2.94,6,6,0,0,1-4.9-5.88,6.11,6.11,0,0,1,5.35-6Z"/><path class="cls-1" d="M137,26.71h15.36q7.17,18.2,14.38,36.4c1.22,3,2.37,6.1,3.65,9.12,6.15-15.16,12.38-30.29,18.49-45.48,4.92-.08,9.85,0,14.77,0q0,30.78,0,61.56c-3.55,0-7.1,0-10.66,0,0-15.14,0-30.29,0-45.43,0-.68,0-1.36-.06-2a8.14,8.14,0,0,0-.55,1c-6.1,15.5-12.32,31-18.39,46.48-2.53.09-5.06,0-7.59,0-6.3-15.5-12.51-31-18.77-46.55-.16-.32-.34-.64-.53-.94-.13,6.64,0,13.28-.06,19.91q0,13.78,0,27.57H137q0-30.79,0-61.57Z"/><path class="cls-1" d="M246.94,44.12a28.9,28.9,0,0,1,15.68,0,12.66,12.66,0,0,1,3,1.25c-.06,3.36,0,6.73,0,10.1a16.77,16.77,0,0,0-12.05-3.7,12.4,12.4,0,0,0-8.77,4.87c-2.64,3.44-3.25,8-2.8,12.22a13.23,13.23,0,0,0,4.27,8.77,13.37,13.37,0,0,0,9.88,2.94,20.12,20.12,0,0,0,9.47-3.89c0,3.19,0,6.37,0,9.56-4.32,2.57-9.49,3.23-14.43,3a21.4,21.4,0,0,1-13.75-5.74A22,22,0,0,1,231,68.77c-.26-5.69.9-11.63,4.18-16.38a21.24,21.24,0,0,1,11.71-8.27Z"/><path class="cls-1" d="M362.27,43.44A27.93,27.93,0,0,1,376.88,45c0,3.24,0,6.47,0,9.71a18.61,18.61,0,0,0-11.09-3.28c-2,.08-4.14.91-5,2.79a4.56,4.56,0,0,0,1.53,5.4c3,2,6.56,2.85,9.67,4.65A13.9,13.9,0,0,1,378,70c2.33,4.84,1.34,11.24-2.75,14.86-3.9,3.65-9.52,4.66-14.69,4.46a31.39,31.39,0,0,1-10.73-2.46c0-3.4,0-6.81,0-10.21a23.09,23.09,0,0,0,9.58,4.13,12.33,12.33,0,0,0,7.29-.67c2.15-1.07,2.54-4.13,1.26-6a12.69,12.69,0,0,0-4.61-3c-3.11-1.4-6.38-2.57-9.11-4.66a10.92,10.92,0,0,1-3.94-6,13.46,13.46,0,0,1,1.46-10.53,15.72,15.72,0,0,1,10.51-6.45Z"/><path class="cls-1" d="M289.24,44.83A11.91,11.91,0,0,1,299,44c0,3.52,0,7,0,10.56a11.22,11.22,0,0,0-7.14-1.68c-3,.34-5.37,2.64-6.6,5.28a19.51,19.51,0,0,0-1.5,9q0,10.55,0,21.1H273.38q0-22.05,0-44.11c3.47,0,6.95,0,10.42,0,0,2.52,0,5,0,7.58,1.13-2.75,2.81-5.42,5.46-6.91Z"/><path class="cls-1" d="M213.48,44.17c3.5,0,7,0,10.51,0,0,14.7,0,29.4,0,44.1H213.49q0-22.06,0-44.12Z"/><path class="cls-1" d="M342.8,54.46a18.67,18.67,0,0,0-9.22-9.32c-4.7-2.14-10-2.43-15.11-1.78a21.07,21.07,0,0,0-13.88,7.42,23.52,23.52,0,0,0-4.87,13.48c-.43,5.69.52,11.73,3.87,16.48a20,20,0,0,0,12.2,8,30.31,30.31,0,0,0,12.36,0,20.43,20.43,0,0,0,12.12-7.48,23.4,23.4,0,0,0,4.64-12.85A29,29,0,0,0,342.8,54.46Zm-10.2,20.25a9.64,9.64,0,0,1-5.19,5.1,14.24,14.24,0,0,1-8.61.38,10.54,10.54,0,0,1-6.62-5.46,20.37,20.37,0,0,1-1.6-11c.32-3.39,1.5-6.87,4.08-9.21a11,11,0,0,1,6.95-2.74,11.36,11.36,0,0,1,8.83,3c2.44,2.4,3.38,5.88,3.64,9.2C334.28,67.56,334.13,71.35,332.61,74.71Z"/><path class="cls-1" d="M427.36,55.73a18.84,18.84,0,0,0-9.07-10.26c-4.81-2.43-10.4-2.78-15.67-2.13a21.86,21.86,0,0,0-11.67,5,21.62,21.62,0,0,0-7,13.55c-.65,5.13-.43,10.53,1.66,15.33a19.57,19.57,0,0,0,10.73,10.41,28.39,28.39,0,0,0,14.87,1.26,20.62,20.62,0,0,0,13-7.59,24.14,24.14,0,0,0,4.78-15A28.13,28.13,0,0,0,427.36,55.73Zm-9.52,15a13.76,13.76,0,0,1-2.73,6.48,9.88,9.88,0,0,1-6.17,3.32,14,14,0,0,1-7.55-.82,10.7,10.7,0,0,1-5.57-5.83,21,21,0,0,1-1.25-9.61,15.26,15.26,0,0,1,3.2-8.79,10.8,10.8,0,0,1,7.71-3.7,11.58,11.58,0,0,1,8.46,2.5,12.11,12.11,0,0,1,3.82,7A26.81,26.81,0,0,1,417.84,70.69Z"/><path class="cls-1" d="M3.7,60H52.52q0,24.41,0,48.82H3.7V60Z"/><path class="cls-1" d="M57.51,60h48.82v48.82H57.51q0-24.41,0-48.82Z"/></g></svg>