<svg xmlns="http://www.w3.org/2000/svg" xmlns:xlink="http://www.w3.org/1999/xlink" viewBox="0 0 200 191.33"><defs><style>.cls-1{filter:url(#luminosity-noclip-30);}.cls-2{mask:url(#mask);}.cls-12,.cls-14,.cls-17,.cls-19,.cls-20,.cls-22,.cls-23,.cls-25,.cls-28,.cls-3,.cls-31,.cls-34,.cls-37,.cls-40,.cls-43,.cls-46,.cls-49,.cls-52,.cls-55,.cls-58,.cls-59,.cls-6,.cls-62,.cls-65,.cls-68,.cls-70,.cls-72,.cls-9{mix-blend-mode:multiply;}.cls-3{fill:url(#linear-gradient);}.cls-4{filter:url(#luminosity-noclip-35);}.cls-5{mask:url(#mask-2);}.cls-6{fill:url(#linear-gradient-2);}.cls-7{filter:url(#luminosity-noclip-36);}.cls-8{mask:url(#mask-3);}.cls-9{fill:url(#linear-gradient-3);}.cls-10{filter:url(#luminosity-noclip-37);}.cls-11{mask:url(#mask-4);}.cls-12{fill:url(#linear-gradient-4);}.cls-13{mask:url(#mask-5);}.cls-14{fill:url(#linear-gradient-5);}.cls-15{filter:url(#luminosity-noclip-39);}.cls-16{mask:url(#mask-6);}.cls-17{fill:url(#linear-gradient-6);}.cls-18{filter:url(#luminosity-noclip-31);}.cls-19{fill:url(#linear-gradient-7);}.cls-20{fill:url(#linear-gradient-8);}.cls-21{mask:url(#mask-9);}.cls-22{fill:url(#linear-gradient-9);}.cls-23{fill:url(#linear-gradient-10);}.cls-24{mask:url(#mask-11);}.cls-25{fill:url(#linear-gradient-11);}.cls-26{filter:url(#luminosity-noclip-44);}.cls-27{mask:url(#mask-12);}.cls-28{fill:url(#linear-gradient-12);}.cls-29{filter:url(#luminosity-noclip-45);}.cls-30{mask:url(#mask-13);}.cls-31{fill:url(#linear-gradient-13);}.cls-32{filter:url(#luminosity-noclip-46);}.cls-33{mask:url(#mask-14);}.cls-34{fill:url(#linear-gradient-14);}.cls-35{filter:url(#luminosity-noclip-47);}.cls-36{mask:url(#mask-15);}.cls-37{fill:url(#linear-gradient-15);}.cls-38{filter:url(#luminosity-noclip-48);}.cls-39{mask:url(#mask-16);}.cls-40{fill:url(#linear-gradient-16);}.cls-41{filter:url(#luminosity-noclip-49);}.cls-42{mask:url(#mask-17);}.cls-43{fill:url(#linear-gradient-17);}.cls-44{filter:url(#luminosity-noclip-32);}.cls-45{mask:url(#mask-18);}.cls-46{fill:url(#linear-gradient-18);}.cls-47{filter:url(#luminosity-noclip-50);}.cls-48{mask:url(#mask-19);}.cls-49{fill:url(#linear-gradient-19);}.cls-50{filter:url(#luminosity-noclip-52);}.cls-51{mask:url(#mask-21);}.cls-52{fill:url(#linear-gradient-21);}.cls-53{filter:url(#luminosity-noclip-53);}.cls-54{mask:url(#mask-22);}.cls-55{fill:url(#linear-gradient-22);}.cls-56{filter:url(#luminosity-noclip-54);}.cls-57{mask:url(#mask-23);}.cls-58{fill:url(#linear-gradient-23);}.cls-59{fill:url(#linear-gradient-24);}.cls-60{filter:url(#luminosity-noclip-56);}.cls-61{mask:url(#mask-25);}.cls-62{fill:url(#linear-gradient-25);}.cls-63{filter:url(#luminosity-noclip-57);}.cls-64{mask:url(#mask-26);}.cls-65{fill:url(#linear-gradient-26);}.cls-66{filter:url(#luminosity-noclip-58);}.cls-67{mask:url(#mask-27);}.cls-68{fill:url(#linear-gradient-27);}.cls-69{filter:url(#luminosity-noclip-33);}.cls-70{fill:url(#linear-gradient-28);}.cls-71{filter:url(#luminosity-noclip-34);}.cls-72{fill:url(#linear-gradient-29);}.cls-73{fill:#6a747c;}.cls-74{mask:url(#mask-30);}.cls-75{mask:url(#mask-31);}.cls-76{mask:url(#mask-32);}.cls-77{mask:url(#mask-33);}.cls-78{mask:url(#mask-34);}.cls-79{mask:url(#mask-35);}.cls-80{mask:url(#mask-36);}.cls-81{mask:url(#mask-37);}.cls-82{mask:url(#mask-39);}.cls-83{mask:url(#mask-44);}.cls-84{mask:url(#mask-45);}.cls-85{mask:url(#mask-46);}.cls-86{mask:url(#mask-47);}.cls-87{mask:url(#mask-48);}.cls-88{mask:url(#mask-49);}.cls-89{mask:url(#mask-50);}.cls-90{mask:url(#mask-52);}.cls-91{mask:url(#mask-53);}.cls-92{mask:url(#mask-54);}.cls-93{mask:url(#mask-56);}.cls-94{mask:url(#mask-57);}.cls-95{mask:url(#mask-58);}.cls-96{filter:url(#luminosity-noclip-27);}.cls-97{filter:url(#luminosity-noclip-26);}.cls-98{filter:url(#luminosity-noclip-25);}.cls-99{filter:url(#luminosity-noclip-23);}.cls-100{filter:url(#luminosity-noclip-22);}.cls-101{filter:url(#luminosity-noclip-21);}.cls-102{filter:url(#luminosity-noclip-19);}.cls-103{filter:url(#luminosity-noclip-18);}.cls-104{filter:url(#luminosity-noclip-17);}.cls-105{filter:url(#luminosity-noclip-16);}.cls-106{filter:url(#luminosity-noclip-15);}.cls-107{filter:url(#luminosity-noclip-14);}.cls-108{filter:url(#luminosity-noclip-13);}.cls-109{filter:url(#luminosity-noclip-12);}.cls-110{filter:url(#luminosity-noclip-11);}.cls-111{filter:url(#luminosity-noclip-9);}.cls-112{filter:url(#luminosity-noclip-6);}.cls-113{filter:url(#luminosity-noclip-5);}.cls-114{filter:url(#luminosity-noclip-4);}.cls-115{filter:url(#luminosity-noclip-3);}.cls-116{filter:url(#luminosity-noclip-2);}.cls-117{filter:url(#luminosity-noclip);}</style><filter id="luminosity-noclip" x="113.97" y="-11559" width="66.07" height="32766" filterUnits="userSpaceOnUse" color-interpolation-filters="sRGB"><feFlood flood-color="#fff" result="bg"/><feBlend in="SourceGraphic" in2="bg"/></filter><mask id="mask" x="113.97" y="-11559" width="66.07" height="32766" maskUnits="userSpaceOnUse"><g class="cls-117"/></mask><linearGradient id="linear-gradient" x1="834.58" y1="1657.63" x2="836.62" y2="1658.56" gradientTransform="translate(-1883.42 -3815.15) scale(2.41 2.34)" gradientUnits="userSpaceOnUse"><stop offset="0" stop-color="#fff"/><stop offset="1"/></linearGradient><filter id="luminosity-noclip-2" x="102.04" y="-11559" width="40.08" height="32766" filterUnits="userSpaceOnUse" color-interpolation-filters="sRGB"><feFlood flood-color="#fff" result="bg"/><feBlend in="SourceGraphic" in2="bg"/></filter><mask id="mask-2" x="102.04" y="-11559" width="40.08" height="32766" maskUnits="userSpaceOnUse"><g class="cls-116"/></mask><linearGradient id="linear-gradient-2" x1="429.33" y1="5581.16" x2="431.33" y2="5581.46" gradientTransform="matrix(1.55, 0, 0, -1.55, -562.28, 8720.36)" xlink:href="#linear-gradient"/><filter id="luminosity-noclip-3" x="58.29" y="-11559" width="39.21" height="32766" filterUnits="userSpaceOnUse" color-interpolation-filters="sRGB"><feFlood flood-color="#fff" result="bg"/><feBlend in="SourceGraphic" in2="bg"/></filter><mask id="mask-3" x="58.29" y="-11559" width="39.21" height="32766" maskUnits="userSpaceOnUse"><g class="cls-115"/></mask><linearGradient id="linear-gradient-3" x1="821.91" y1="1651.72" x2="821.11" y2="1651.72" xlink:href="#linear-gradient"/><filter id="luminosity-noclip-4" x="102.23" y="-11559" width="39.19" height="32766" filterUnits="userSpaceOnUse" color-interpolation-filters="sRGB"><feFlood flood-color="#fff" result="bg"/><feBlend in="SourceGraphic" in2="bg"/></filter><mask id="mask-4" x="102.23" y="-11559" width="39.19" height="32766" maskUnits="userSpaceOnUse"><g class="cls-114"/></mask><linearGradient id="linear-gradient-4" x1="451.55" y1="5580.92" x2="450.66" y2="5581.01" gradientTransform="matrix(1.55, 0, 0, -1.55, -562.28, 8720.36)" xlink:href="#linear-gradient"/><filter id="luminosity-noclip-5" x="4.05" y="-11559" width="85.74" height="32766" filterUnits="userSpaceOnUse" color-interpolation-filters="sRGB"><feFlood flood-color="#fff" result="bg"/><feBlend in="SourceGraphic" in2="bg"/></filter><mask id="mask-5" x="4.05" y="-11559" width="85.74" height="32766" maskUnits="userSpaceOnUse"><g class="cls-113"/></mask><linearGradient id="linear-gradient-5" x1="784.59" y1="1685.8" x2="797.29" y2="1675.71" gradientTransform="translate(-1883.42 -3815.15) scale(2.41 2.34)" gradientUnits="userSpaceOnUse"><stop offset="0" stop-color="#fff"/><stop offset="0.51" stop-color="#313131"/><stop offset="0.69" stop-color="#111"/><stop offset="1"/></linearGradient><filter id="luminosity-noclip-6" x="110.2" y="-11559" width="85.74" height="32766" filterUnits="userSpaceOnUse" color-interpolation-filters="sRGB"><feFlood flood-color="#fff" result="bg"/><feBlend in="SourceGraphic" in2="bg"/></filter><mask id="mask-6" x="110.2" y="-11559" width="85.74" height="32766" maskUnits="userSpaceOnUse"><g class="cls-112"/></mask><linearGradient id="linear-gradient-6" x1="860.72" y1="1685.8" x2="848.02" y2="1675.71" xlink:href="#linear-gradient-5"/><linearGradient id="linear-gradient-7" x1="800.64" y1="1681.79" x2="800.64" y2="1677.16" gradientTransform="translate(-1883.42 -3815.15) scale(2.41 2.34)" gradientUnits="userSpaceOnUse"><stop offset="0" stop-color="#fff"/><stop offset="0.5" stop-color="#363636"/><stop offset="1"/></linearGradient><linearGradient id="linear-gradient-8" x1="845.01" y1="1666.36" x2="843.09" y2="1663.71" xlink:href="#linear-gradient"/><filter id="luminosity-noclip-9" x="57.89" y="-11559" width="40.06" height="32766" filterUnits="userSpaceOnUse" color-interpolation-filters="sRGB"><feFlood flood-color="#fff" result="bg"/><feBlend in="SourceGraphic" in2="bg"/></filter><mask id="mask-9" x="57.89" y="-11559" width="40.06" height="32766" maskUnits="userSpaceOnUse"><g class="cls-111"/></mask><linearGradient id="linear-gradient-9" x1="821.39" y1="1652.48" x2="819.58" y2="1652.24" xlink:href="#linear-gradient"/><linearGradient id="linear-gradient-10" x1="448.13" y1="5578.31" x2="444.74" y2="5579.8" gradientTransform="matrix(1.55, 0, 0, -1.55, -562.28, 8720.36)" xlink:href="#linear-gradient"/><filter id="luminosity-noclip-11" x="19.89" y="-11559" width="66.14" height="32766" filterUnits="userSpaceOnUse" color-interpolation-filters="sRGB"><feFlood flood-color="#fff" result="bg"/><feBlend in="SourceGraphic" in2="bg"/></filter><mask id="mask-11" x="19.89" y="-11559" width="66.14" height="32766" maskUnits="userSpaceOnUse"><g class="cls-110"/></mask><linearGradient id="linear-gradient-11" x1="811.34" y1="1657.45" x2="808.57" y2="1658.66" xlink:href="#linear-gradient"/><filter id="luminosity-noclip-12" x="20.99" y="-11559" width="60.43" height="32766" filterUnits="userSpaceOnUse" color-interpolation-filters="sRGB"><feFlood flood-color="#fff" result="bg"/><feBlend in="SourceGraphic" in2="bg"/></filter><mask id="mask-12" x="20.99" y="-11559" width="60.43" height="32766" maskUnits="userSpaceOnUse"><g class="cls-109"/></mask><linearGradient id="linear-gradient-12" x1="790.28" y1="1648.57" x2="791.17" y2="1649.05" xlink:href="#linear-gradient"/><filter id="luminosity-noclip-13" x="114.2" y="-11559" width="78.61" height="32766" filterUnits="userSpaceOnUse" color-interpolation-filters="sRGB"><feFlood flood-color="#fff" result="bg"/><feBlend in="SourceGraphic" in2="bg"/></filter><mask id="mask-13" x="114.2" y="-11559" width="78.61" height="32766" maskUnits="userSpaceOnUse"><g class="cls-108"/></mask><linearGradient id="linear-gradient-13" x1="1831.77" y1="5553.68" x2="1808.37" y2="5553.78" gradientTransform="translate(3020.05 8720.36) rotate(180) scale(1.55)" gradientUnits="userSpaceOnUse"><stop offset="0" stop-color="#bfbfbf"/><stop offset="1"/></linearGradient><filter id="luminosity-noclip-14" x="6.91" y="-11559" width="79.03" height="32766" filterUnits="userSpaceOnUse" color-interpolation-filters="sRGB"><feFlood flood-color="#fff" result="bg"/><feBlend in="SourceGraphic" in2="bg"/></filter><mask id="mask-14" x="6.91" y="-11559" width="79.03" height="32766" maskUnits="userSpaceOnUse"><g class="cls-107"/></mask><linearGradient id="linear-gradient-14" x1="378.14" y1="5553.68" x2="354.74" y2="5553.78" gradientTransform="matrix(1.55, 0, 0, -1.55, -562.28, 8720.36)" xlink:href="#linear-gradient-13"/><filter id="luminosity-noclip-15" x="21.86" y="-11559" width="59.5" height="32766" filterUnits="userSpaceOnUse" color-interpolation-filters="sRGB"><feFlood flood-color="#fff" result="bg"/><feBlend in="SourceGraphic" in2="bg"/></filter><mask id="mask-15" x="21.86" y="-11559" width="59.5" height="32766" maskUnits="userSpaceOnUse"><g class="cls-106"/></mask><linearGradient id="linear-gradient-15" x1="398.17" y1="5605.85" x2="395.98" y2="5577.15" gradientTransform="matrix(1.55, 0, 0, -1.55, -562.28, 8720.36)" xlink:href="#linear-gradient"/><filter id="luminosity-noclip-16" x="21.91" y="-11559" width="59.5" height="32766" filterUnits="userSpaceOnUse" color-interpolation-filters="sRGB"><feFlood flood-color="#fff" result="bg"/><feBlend in="SourceGraphic" in2="bg"/></filter><mask id="mask-16" x="21.91" y="-11559" width="59.5" height="32766" maskUnits="userSpaceOnUse"><g class="cls-105"/></mask><linearGradient id="linear-gradient-16" x1="444.42" y1="5603.97" x2="397.51" y2="5572.21" gradientTransform="matrix(1.55, 0, 0, -1.55, -562.16, 8720.36)" xlink:href="#linear-gradient"/><filter id="luminosity-noclip-17" x="118.52" y="-11559" width="59.5" height="32766" filterUnits="userSpaceOnUse" color-interpolation-filters="sRGB"><feFlood flood-color="#fff" result="bg"/><feBlend in="SourceGraphic" in2="bg"/></filter><mask id="mask-17" x="118.52" y="-11559" width="59.5" height="32766" maskUnits="userSpaceOnUse"><g class="cls-104"/></mask><linearGradient id="linear-gradient-17" x1="1851.56" y1="5605.85" x2="1849.38" y2="5577.15" gradientTransform="translate(3019.43 8720.36) rotate(180) scale(1.55)" xlink:href="#linear-gradient"/><filter id="luminosity-noclip-18" x="110.21" y="-11559" width="85.74" height="32766" filterUnits="userSpaceOnUse" color-interpolation-filters="sRGB"><feFlood flood-color="#fff" result="bg"/><feBlend in="SourceGraphic" in2="bg"/></filter><mask id="mask-18" x="110.21" y="-11559" width="85.74" height="32766" maskUnits="userSpaceOnUse"><g class="cls-103"/></mask><linearGradient id="linear-gradient-18" x1="844.67" y1="1680.99" x2="844.67" y2="1677.72" gradientTransform="translate(-1883.42 -3815.15) scale(2.41 2.34)" gradientUnits="userSpaceOnUse"><stop offset="0" stop-color="#fff"/><stop offset="0.57" stop-color="#3a3a3a"/><stop offset="1"/></linearGradient><filter id="luminosity-noclip-19" x="118.53" y="-11559" width="59.5" height="32766" filterUnits="userSpaceOnUse" color-interpolation-filters="sRGB"><feFlood flood-color="#fff" result="bg"/><feBlend in="SourceGraphic" in2="bg"/></filter><mask id="mask-19" x="118.53" y="-11559" width="59.5" height="32766" maskUnits="userSpaceOnUse"><g class="cls-102"/></mask><linearGradient id="linear-gradient-19" x1="1897.87" y1="5603.97" x2="1850.96" y2="5572.21" gradientTransform="translate(3019.45 8720.36) rotate(180) scale(1.55)" xlink:href="#linear-gradient"/><filter id="luminosity-noclip-21" x="5.54" y="-11559" width="79.2" height="32766" filterUnits="userSpaceOnUse" color-interpolation-filters="sRGB"><feFlood flood-color="#fff" result="bg"/><feBlend in="SourceGraphic" in2="bg"/></filter><mask id="mask-21" x="5.54" y="-11559" width="79.2" height="32766" maskUnits="userSpaceOnUse"><g class="cls-101"/></mask><linearGradient id="linear-gradient-21" x1="373.34" y1="5566.2" x2="374.36" y2="5565.36" gradientTransform="matrix(1.55, 0, 0, -1.55, -565.26, 8721.63)" xlink:href="#linear-gradient"/><filter id="luminosity-noclip-22" x="115.23" y="-11559" width="79.2" height="32766" filterUnits="userSpaceOnUse" color-interpolation-filters="sRGB"><feFlood flood-color="#fff" result="bg"/><feBlend in="SourceGraphic" in2="bg"/></filter><mask id="mask-22" x="115.23" y="-11559" width="79.2" height="32766" maskUnits="userSpaceOnUse"><g class="cls-100"/></mask><linearGradient id="linear-gradient-22" x1="1826.81" y1="5566.2" x2="1827.83" y2="5565.36" gradientTransform="translate(3022.62 8721.63) rotate(180) scale(1.55)" xlink:href="#linear-gradient"/><filter id="luminosity-noclip-23" x="118.51" y="-11559" width="60.43" height="32766" filterUnits="userSpaceOnUse" color-interpolation-filters="sRGB"><feFlood flood-color="#fff" result="bg"/><feBlend in="SourceGraphic" in2="bg"/></filter><mask id="mask-23" x="118.51" y="-11559" width="60.43" height="32766" maskUnits="userSpaceOnUse"><g class="cls-99"/></mask><linearGradient id="linear-gradient-23" x1="855" y1="1648.57" x2="854.11" y2="1649.05" xlink:href="#linear-gradient"/><linearGradient id="linear-gradient-24" x1="816.58" y1="1674.68" x2="809.77" y2="1665.84" xlink:href="#linear-gradient"/><filter id="luminosity-noclip-25" x="118.5" y="-11559" width="59.5" height="32766" filterUnits="userSpaceOnUse" color-interpolation-filters="sRGB"><feFlood flood-color="#fff" result="bg"/><feBlend in="SourceGraphic" in2="bg"/></filter><mask id="mask-25" x="118.5" y="-11559" width="59.5" height="32766" maskUnits="userSpaceOnUse"><g class="cls-98"/></mask><linearGradient id="linear-gradient-25" x1="1752.5" y1="1674.57" x2="1745.91" y2="1665.92" gradientTransform="matrix(-2.41, 0, 0, 2.34, 4340.63, -3815.15)" xlink:href="#linear-gradient"/><filter id="luminosity-noclip-26" x="59.18" y="-11559" width="38.32" height="32766" filterUnits="userSpaceOnUse" color-interpolation-filters="sRGB"><feFlood flood-color="#fff" result="bg"/><feBlend in="SourceGraphic" in2="bg"/></filter><mask id="mask-26" x="59.18" y="-11559" width="38.32" height="32766" maskUnits="userSpaceOnUse"><g class="cls-97"/></mask><linearGradient id="linear-gradient-26" x1="409.68" y1="5622.92" x2="414.26" y2="5582.95" gradientTransform="matrix(1.55, 0, 0, -1.55, -562.28, 8720.36)" xlink:href="#linear-gradient"/><filter id="luminosity-noclip-27" x="102.41" y="-11559" width="38.28" height="32766" filterUnits="userSpaceOnUse" color-interpolation-filters="sRGB"><feFlood flood-color="#fff" result="bg"/><feBlend in="SourceGraphic" in2="bg"/></filter><mask id="mask-27" x="102.41" y="-11559" width="38.28" height="32766" maskUnits="userSpaceOnUse"><g class="cls-96"/></mask><linearGradient id="linear-gradient-27" x1="1863.05" y1="5622.92" x2="1867.63" y2="5582.95" gradientTransform="translate(3019.38 8720.36) rotate(180) scale(1.55)" xlink:href="#linear-gradient"/><linearGradient id="linear-gradient-28" x1="799.45" y1="1667.62" x2="801.95" y2="1664.12" xlink:href="#linear-gradient"/><linearGradient id="linear-gradient-29" x1="808.33" y1="1654.41" x2="810.64" y2="1653.43" xlink:href="#linear-gradient"/><filter id="luminosity-noclip-30" x="113.97" y="31.79" width="66.07" height="74.27" filterUnits="userSpaceOnUse" color-interpolation-filters="sRGB"><feFlood flood-color="#fff" result="bg"/><feBlend in="SourceGraphic" in2="bg"/></filter><mask id="mask-30" x="113.97" y="31.79" width="66.07" height="74.27" maskUnits="userSpaceOnUse"><g id="_Group_" data-name="&lt;Group&gt;" class="cls-1"><g class="cls-2"><path id="path4494" class="cls-3" d="M143,41.88l-29,64.18c19.56-12.67,39.44-26.65,59-40a19,19,0,0,0,6.36-20A19.79,19.79,0,0,0,143,41.88"/></g></g></mask><filter id="luminosity-noclip-31" x="4.05" y="75.34" width="85.74" height="39.56" filterUnits="userSpaceOnUse" color-interpolation-filters="sRGB"><feFlood flood-color="#fff" result="bg"/><feBlend in="SourceGraphic" in2="bg"/></filter><mask id="mask-31" x="4.05" y="75.34" width="85.74" height="39.56" maskUnits="userSpaceOnUse"><g id="_Group_2" data-name="&lt;Group&gt;" class="cls-18"><g class="cls-13"><path id="path6981-8" class="cls-19" d="M5.75,87.22c-3,6.2-1.85,14.71,2.48,20A20.69,20.69,0,0,0,25,114.85l64.79.05L35.52,78.26A21.54,21.54,0,0,0,16.36,77,20.77,20.77,0,0,0,5.75,87.22"/></g></g></mask><filter id="luminosity-noclip-32" x="110.21" y="75.34" width="85.74" height="39.56" filterUnits="userSpaceOnUse" color-interpolation-filters="sRGB"><feFlood flood-color="#fff" result="bg"/><feBlend in="SourceGraphic" in2="bg"/></filter><mask id="mask-32" x="110.21" y="75.34" width="85.74" height="39.56" maskUnits="userSpaceOnUse"><g id="_Group_3" data-name="&lt;Group&gt;" class="cls-44"><g class="cls-45"><path id="path7368-3" class="cls-46" d="M194.25,87.22c3,6.2,1.85,14.71-2.48,20A20.69,20.69,0,0,1,175,114.85l-64.79.05,54.27-36.64A21.54,21.54,0,0,1,183.64,77a20.77,20.77,0,0,1,10.62,10.2"/></g></g></mask><filter id="luminosity-noclip-33" x="19.89" y="31.79" width="66.14" height="74.16" filterUnits="userSpaceOnUse" color-interpolation-filters="sRGB"><feFlood flood-color="#fff" result="bg"/><feBlend in="SourceGraphic" in2="bg"/></filter><mask id="mask-33" x="19.89" y="31.79" width="66.14" height="74.16" maskUnits="userSpaceOnUse"><g id="_Group_4" data-name="&lt;Group&gt;" class="cls-69"><g class="cls-24"><path id="path3122-4" class="cls-70" d="M57,41.88,86,106C66.16,93.28,45.82,80.07,26.57,66.79c-6-5-7.94-13.2-5.92-20.74A19.79,19.79,0,0,1,57,41.88"/></g></g></mask><filter id="luminosity-noclip-34" x="57.89" y="5.22" width="40.06" height="90.43" filterUnits="userSpaceOnUse" color-interpolation-filters="sRGB"><feFlood flood-color="#fff" result="bg"/><feBlend in="SourceGraphic" in2="bg"/></filter><mask id="mask-34" x="57.89" y="5.22" width="40.06" height="90.43" maskUnits="userSpaceOnUse"><g id="_Group_5" data-name="&lt;Group&gt;" class="cls-71"><g class="cls-21"><path id="path3458-3" class="cls-72" d="M95.21,15.21a21.08,21.08,0,0,1,2.52,13.17c-4.07,22.27-6,45.19-10.42,67.28-10-21.09-19.05-42.61-28.46-64a20.53,20.53,0,0,1,5.21-20.82A19.74,19.74,0,0,1,85.6,6.78a21.59,21.59,0,0,1,9.61,8.43"/></g></g></mask><filter id="luminosity-noclip-35" x="102.04" y="5.22" width="40.08" height="90.44" filterUnits="userSpaceOnUse" color-interpolation-filters="sRGB"><feFlood flood-color="#fff" result="bg"/><feBlend in="SourceGraphic" in2="bg"/></filter><mask id="mask-35" x="102.04" y="5.22" width="40.08" height="90.44" maskUnits="userSpaceOnUse"><g id="_Group_6" data-name="&lt;Group&gt;" class="cls-4"><g class="cls-5"><path id="path3162-2" class="cls-6" d="M121.45,5.23a19.34,19.34,0,0,0-7.06,1.55,21.57,21.57,0,0,0-9.61,8.43A22.06,22.06,0,0,0,102,25.41h10.15c1.37.25,2.75.9,2.34,1.7,0,0,0,0,0,0l0,.06a1,1,0,0,1-.19.23,2,2,0,0,1-.21.17,3.77,3.77,0,0,1-.5.29l0,0c-.18.09-.4.18-.64.27l-.64.23a16.37,16.37,0,0,0-8.49,7.5l0,.08a1.61,1.61,0,0,0-.12.52,3,3,0,0,0,0,.58l0,.21a.29.29,0,0,0,0,.06l.1.6.37,2.42,2.65,17.07.19,1.43,5.36,34.86c.13.64.24,1.28.37,1.91l0,0c10-21.07,19-42.58,28.44-63.92a20.56,20.56,0,0,0-5.22-20.84,19.37,19.37,0,0,0-14.48-5.63Z"/></g></g></mask><filter id="luminosity-noclip-36" x="58.29" y="6.12" width="39.21" height="88.51" filterUnits="userSpaceOnUse" color-interpolation-filters="sRGB"><feFlood flood-color="#fff" result="bg"/><feBlend in="SourceGraphic" in2="bg"/></filter><mask id="mask-36" x="58.29" y="6.12" width="39.21" height="88.51" maskUnits="userSpaceOnUse"><g id="_Group_7" data-name="&lt;Group&gt;" class="cls-7"><g class="cls-8"><path id="path4471-7" class="cls-9" d="M94.82,15.9a20.63,20.63,0,0,1,2.47,12.89c-4,21.8-5.84,44.22-10.2,65.84C77.32,74,68.44,52.93,59.23,32a20.09,20.09,0,0,1,5.1-20.38,19.32,19.32,0,0,1,21.07-4,21.13,21.13,0,0,1,9.41,8.25"/></g></g></mask><filter id="luminosity-noclip-37" x="102.23" y="6.13" width="39.19" height="88.5" filterUnits="userSpaceOnUse" color-interpolation-filters="sRGB"><feFlood flood-color="#fff" result="bg"/><feBlend in="SourceGraphic" in2="bg"/></filter><mask id="mask-37" x="102.23" y="6.13" width="39.19" height="88.5" maskUnits="userSpaceOnUse"><g id="_Group_8" data-name="&lt;Group&gt;" class="cls-10"><g class="cls-11"><path id="path4529-6" class="cls-12" d="M121.18,6.14a18.8,18.8,0,0,0-6.88,1.51,21.15,21.15,0,0,0-9.42,8.26A21.9,21.9,0,0,0,102.23,25h10.32c3.53,1,3.15,2.47.17,3.65-4.24,1.32-6.82,4.52-9,8,3.11,19.28,5,38.9,8.84,57.91C122.38,74,131.27,52.92,140.48,32a20.09,20.09,0,0,0-5.1-20.38,19,19,0,0,0-14.19-5.51ZM102.23,26.57c0,.38,0,.76.06,1.14l0-1.14Z"/></g></g></mask><filter id="luminosity-noclip-39" x="110.2" y="75.34" width="85.74" height="39.56" filterUnits="userSpaceOnUse" color-interpolation-filters="sRGB"><feFlood flood-color="#fff" result="bg"/><feBlend in="SourceGraphic" in2="bg"/></filter><mask id="mask-39" x="110.2" y="75.34" width="85.74" height="39.56" maskUnits="userSpaceOnUse"><g id="_Group_10" data-name="&lt;Group&gt;" class="cls-15"><g class="cls-16"><path id="path7390-9" class="cls-17" d="M194.24,87.22c3,6.2,1.85,14.71-2.48,20A20.69,20.69,0,0,1,175,114.85l-64.79.05,54.27-36.64A21.54,21.54,0,0,1,183.63,77a20.77,20.77,0,0,1,10.62,10.2"/></g></g></mask><filter id="luminosity-noclip-44" x="20.99" y="32.66" width="60.43" height="63.89" filterUnits="userSpaceOnUse" color-interpolation-filters="sRGB"><feFlood flood-color="#fff" result="bg"/><feBlend in="SourceGraphic" in2="bg"/></filter><mask id="mask-44" x="20.99" y="32.66" width="60.43" height="63.89" maskUnits="userSpaceOnUse"><g id="_Group_15" data-name="&lt;Group&gt;" class="cls-26"><g class="cls-27"><path id="path4079-0" class="cls-28" d="M39.5,32.66c-2.82,0-7.36.92-9.81,2.49-5.43,3.06-9.85,9.46-7.79,14.51H21c8.38-.17,21.22-3.23,27.39.33,13.91,11.14,23.84,33.49,33,46.56l-25.15-54a18.14,18.14,0,0,0-16.54-9.86Z"/></g></g></mask><filter id="luminosity-noclip-45" x="114.2" y="76.45" width="78.61" height="37.22" filterUnits="userSpaceOnUse" color-interpolation-filters="sRGB"><feFlood flood-color="#fff" result="bg"/><feBlend in="SourceGraphic" in2="bg"/></filter><mask id="mask-45" x="114.2" y="76.45" width="78.61" height="37.22" maskUnits="userSpaceOnUse"><g id="_Group_16" data-name="&lt;Group&gt;" class="cls-29"><g class="cls-30"><path id="path3693-9" class="cls-31" d="M175.12,76.46a18.76,18.76,0,0,1,8,1.59c4.78,2.27,8,5.61,9.22,8.59.28.58.25,1.9.45,2.52-10.2-8.21-21.6-4.72-34.75,1.77-15.2,7.84-30.81,16-43.87,22.76,15.3-10.6,34.26-23.25,50.85-34.45a19.8,19.8,0,0,1,10.07-2.76Z"/></g></g></mask><filter id="luminosity-noclip-46" x="6.91" y="76.45" width="79.03" height="37.22" filterUnits="userSpaceOnUse" color-interpolation-filters="sRGB"><feFlood flood-color="#fff" result="bg"/><feBlend in="SourceGraphic" in2="bg"/></filter><mask id="mask-46" x="6.91" y="76.45" width="79.03" height="37.22" maskUnits="userSpaceOnUse"><g id="_Group_17" data-name="&lt;Group&gt;" class="cls-32"><g class="cls-33"><path id="path3626-4" class="cls-34" d="M25,76.46A18.76,18.76,0,0,0,17,78c-5.12,2-11.1,8.36-9.94,11.07,9.87-3.13,25.2-3,35,1.81,15.2,7.84,30.81,16,43.87,22.76-15.3-10.6-34.26-23.25-50.85-34.45A19.8,19.8,0,0,0,25,76.46Z"/></g></g></mask><filter id="luminosity-noclip-47" x="21.86" y="32.66" width="59.5" height="63.89" filterUnits="userSpaceOnUse" color-interpolation-filters="sRGB"><feFlood flood-color="#fff" result="bg"/><feBlend in="SourceGraphic" in2="bg"/></filter><mask id="mask-47" x="21.86" y="32.66" width="59.5" height="63.89" maskUnits="userSpaceOnUse"><g id="_Group_18" data-name="&lt;Group&gt;" class="cls-35"><g class="cls-36"><path id="path3924-5" class="cls-37" d="M39.46,32.66c-2.14,0-6.8.7-9.24,2.26C25.66,38,24,40.61,22.44,46.39a20.81,20.81,0,0,0-.58,3.27l.1-.12c8.38-.17,20.2-3.12,26.37.45,13.91,11.14,23.84,33.49,33,46.56l-25.15-54A18.47,18.47,0,0,0,39.46,32.66Z"/></g></g></mask><filter id="luminosity-noclip-48" x="21.91" y="32.66" width="59.5" height="63.89" filterUnits="userSpaceOnUse" color-interpolation-filters="sRGB"><feFlood flood-color="#fff" result="bg"/><feBlend in="SourceGraphic" in2="bg"/></filter><mask id="mask-48" x="21.91" y="32.66" width="59.5" height="63.89" maskUnits="userSpaceOnUse"><g id="_Group_19" data-name="&lt;Group&gt;" class="cls-38"><g class="cls-39"><path id="path3960-1" class="cls-40" d="M39.5,32.66c-2.14,0-6.8.7-9.24,2.26C25.7,38,24.09,40.61,22.49,46.39a20.82,20.82,0,0,0-.58,3.27l.1-.12c8.38-.17,20.2-3.12,26.37.45,13.91,11.14,23.84,33.49,33,46.56l-25.15-54A18.47,18.47,0,0,0,39.5,32.66Z"/></g></g></mask><filter id="luminosity-noclip-49" x="118.52" y="32.66" width="59.5" height="63.89" filterUnits="userSpaceOnUse" color-interpolation-filters="sRGB"><feFlood flood-color="#fff" result="bg"/><feBlend in="SourceGraphic" in2="bg"/></filter><mask id="mask-49" x="118.52" y="32.66" width="59.5" height="63.89" maskUnits="userSpaceOnUse"><g id="_Group_20" data-name="&lt;Group&gt;" class="cls-41"><g class="cls-42"><path id="path3993-3" class="cls-43" d="M160.43,32.66c2.14,0,6.8.7,9.24,2.26,4.56,3.06,6.17,5.68,7.77,11.47a20.82,20.82,0,0,1,.58,3.27l-.1-.12c-8.38-.17-20.2-3.12-26.37.45-13.91,11.14-23.84,33.49-33,46.56l25.15-54a18.47,18.47,0,0,1,16.76-9.86Z"/></g></g></mask><filter id="luminosity-noclip-50" x="118.53" y="32.66" width="59.5" height="63.89" filterUnits="userSpaceOnUse" color-interpolation-filters="sRGB"><feFlood flood-color="#fff" result="bg"/><feBlend in="SourceGraphic" in2="bg"/></filter><mask id="mask-50" x="118.53" y="32.66" width="59.5" height="63.89" maskUnits="userSpaceOnUse"><g id="_Group_21" data-name="&lt;Group&gt;" class="cls-47"><g class="cls-48"><path id="path4003-2" class="cls-49" d="M160.44,32.66c2.14,0,6.8.7,9.24,2.26,4.56,3.06,6.17,5.68,7.77,11.47a20.82,20.82,0,0,1,.58,3.27l-.1-.12c-8.38-.17-20.2-3.12-26.37.45-13.91,11.14-23.84,33.49-33,46.56l25.15-54a18.47,18.47,0,0,1,16.76-9.86Z"/></g></g></mask><filter id="luminosity-noclip-52" x="5.54" y="76.96" width="79.2" height="37.22" filterUnits="userSpaceOnUse" color-interpolation-filters="sRGB"><feFlood flood-color="#fff" result="bg"/><feBlend in="SourceGraphic" in2="bg"/></filter><mask id="mask-52" x="5.54" y="76.96" width="79.2" height="37.22" maskUnits="userSpaceOnUse"><g id="_Group_23" data-name="&lt;Group&gt;" class="cls-50"><g class="cls-51"><path id="path4057-1" class="cls-52" d="M23.83,77a32.79,32.79,0,0,0-8.76,1.19c-4.83,2.1-10,8.93-9.48,11.46,9.87-3.13,25.48-3,35.29,1.81,15.2,7.84,30.81,16,43.87,22.76-15.3-10.6-34.26-23.25-50.85-34.45A19.8,19.8,0,0,0,23.83,77Z"/></g></g></mask><filter id="luminosity-noclip-53" x="115.23" y="76.96" width="79.2" height="37.22" filterUnits="userSpaceOnUse" color-interpolation-filters="sRGB"><feFlood flood-color="#fff" result="bg"/><feBlend in="SourceGraphic" in2="bg"/></filter><mask id="mask-53" x="115.23" y="76.96" width="79.2" height="37.22" maskUnits="userSpaceOnUse"><g id="_Group_24" data-name="&lt;Group&gt;" class="cls-53"><g class="cls-54"><path id="path4075-6" class="cls-55" d="M176.15,77a32.79,32.79,0,0,1,8.76,1.19c4.83,2.1,10,8.93,9.48,11.46-9.87-3.13-25.48-3-35.29,1.81-15.2,7.84-30.81,16-43.87,22.76,15.3-10.6,34.26-23.25,50.85-34.45A19.8,19.8,0,0,1,176.15,77Z"/></g></g></mask><filter id="luminosity-noclip-54" x="118.51" y="32.66" width="60.43" height="63.89" filterUnits="userSpaceOnUse" color-interpolation-filters="sRGB"><feFlood flood-color="#fff" result="bg"/><feBlend in="SourceGraphic" in2="bg"/></filter><mask id="mask-54" x="118.51" y="32.66" width="60.43" height="63.89" maskUnits="userSpaceOnUse"><g id="_Group_25" data-name="&lt;Group&gt;" class="cls-56"><g class="cls-57"><path id="path4091-4" class="cls-58" d="M160.42,32.66c2.82,0,7.36.92,9.81,2.49,5.43,3.06,9.85,9.46,7.79,14.51h.92c-8.38-.17-21.22-3.23-27.39.33-13.91,11.14-23.84,33.49-33,46.56l25.15-54a18.14,18.14,0,0,1,16.54-9.86Z"/></g></g></mask><filter id="luminosity-noclip-56" x="118.5" y="32.66" width="59.5" height="63.89" filterUnits="userSpaceOnUse" color-interpolation-filters="sRGB"><feFlood flood-color="#fff" result="bg"/><feBlend in="SourceGraphic" in2="bg"/></filter><mask id="mask-56" x="118.5" y="32.66" width="59.5" height="63.89" maskUnits="userSpaceOnUse"><g id="_Group_27" data-name="&lt;Group&gt;" class="cls-60"><g class="cls-61"><path id="path4490" class="cls-62" d="M160.41,32.66c2.14,0,6.8.7,9.24,2.26,4.56,3.06,6.17,5.68,7.77,11.47a20.82,20.82,0,0,1,.58,3.27l-.1-.12c-8.38-.17-20.2-3.12-26.37.45-13.91,11.14-23.84,33.49-33,46.56l25.15-54a18.47,18.47,0,0,1,16.76-9.86Z"/></g></g></mask><filter id="luminosity-noclip-57" x="59.18" y="6.12" width="38.32" height="24.66" filterUnits="userSpaceOnUse" color-interpolation-filters="sRGB"><feFlood flood-color="#fff" result="bg"/><feBlend in="SourceGraphic" in2="bg"/></filter><mask id="mask-57" x="59.18" y="6.12" width="38.32" height="24.66" maskUnits="userSpaceOnUse"><g id="_Group_28" data-name="&lt;Group&gt;" class="cls-63"><g class="cls-64"><path id="path4487-7" class="cls-65" d="M77.1,6.14a18.82,18.82,0,0,0-12.76,5.51C60,16,58.49,21.88,59.47,28c8,3.07,20.67,3.59,37.62,1.76h0c.06-.31.1-.62.15-.93a20.65,20.65,0,0,0-2.47-12.9,21.11,21.11,0,0,0-9.4-8.26A19.05,19.05,0,0,0,77.1,6.14Z"/></g></g></mask><filter id="luminosity-noclip-58" x="102.41" y="6.12" width="38.28" height="24.67" filterUnits="userSpaceOnUse" color-interpolation-filters="sRGB"><feFlood flood-color="#fff" result="bg"/><feBlend in="SourceGraphic" in2="bg"/></filter><mask id="mask-58" x="102.41" y="6.12" width="38.28" height="24.67" maskUnits="userSpaceOnUse"><g id="_Group_29" data-name="&lt;Group&gt;" class="cls-66"><g class="cls-67"><path id="path4648-4" class="cls-68" d="M121.7,6.12a18.93,18.93,0,0,0-7.25,1.53,21.11,21.11,0,0,0-9.4,8.26,21.94,21.94,0,0,0-2.65,9.16H112.6c5,1.58.87,3.39-.73,3.94a11.55,11.55,0,0,0-2.59,1.31c13.73,1,24.19.31,31.13-2.36,1-6.09-.5-11.93-4.87-16.32a18.82,18.82,0,0,0-12.76-5.51C122.41,6.12,122.06,6.11,121.7,6.12Z"/></g></g></mask></defs><title>nbc</title><g id="Layer_2" data-name="Layer 2"><path id="path3533" class="cls-73" d="M158.63,126.8c-16.47.42-29.86,13.1-30.26,29-.41,16.39,13.2,30,30.39,30.35a31.62,31.62,0,0,0,25.74-12l-.07-.07L179,169.09l-.49-.44a22.88,22.88,0,0,1-18.87,9c-12.36-.27-22.13-9.86-21.84-21.42s10.56-20.73,22.92-20.45a22.94,22.94,0,0,1,16.58,7.45l0,0,0,0,.65-.67,5.06-5.2.13-.12a31.65,31.65,0,0,0-22.94-10.4c-.54,0-1.08,0-1.61,0Z"/><path id="path3535" class="cls-73" d="M72.63,129v55.43h36.7a16.06,16.06,0,0,0,6.58-30.74c4.59-2.21,7.77-6.34,7.92-11.14.23-7.11-6.22-13-14.5-13.51v0H72.63Zm8.82,7.89h25.2v0c3.59.34,6.36,3.85,6.27,8.05s-2.84,7.31-6.27,7.64v0H81.45V136.92Zm.07,22.46h27.41v0c3.91.37,6.93,4.14,6.83,8.65-.1,4.35-3.1,7.86-6.83,8.21v0H81.52V159.38Z"/><path id="path6890" class="cls-73" d="M15.25,129v55.41H25.56V145l31,39.24,0,.12h8.31V129.05H55.16v38.16L47.81,158v0L25,129H15.25Z"/><path id="path3348-8" class="cls-73" d="M78.56,5.22a19.38,19.38,0,0,0-14.48,5.65,20.53,20.53,0,0,0-5.22,20.82c9.41,21.35,18.48,42.87,28.46,64,4.45-22.09,6.35-45,10.42-67.26A21.13,21.13,0,0,0,95.2,15.2,21.57,21.57,0,0,0,85.6,6.77,19.24,19.24,0,0,0,78.56,5.22Z"/><path id="path3352-7" class="cls-73" d="M57,41.88,86,106C66.16,93.28,45.82,80.07,26.57,66.79c-6-5-7.94-13.2-5.92-20.74A19.79,19.79,0,0,1,57,41.88"/><path id="path3356-7" class="cls-73" d="M5.75,87.22c-3,6.2-1.85,14.71,2.48,20A20.69,20.69,0,0,0,25,114.85l64.79.05L35.52,78.26A21.54,21.54,0,0,0,16.36,77,20.77,20.77,0,0,0,5.75,87.22"/><path id="path6968-9" class="cls-73" d="M121.46,5.22a19.34,19.34,0,0,0-7.06,1.55,21.57,21.57,0,0,0-9.61,8.43A22.06,22.06,0,0,0,102,25.41H112.2c1.37.25,2.75.9,2.34,1.7a0,0,0,0,1,0,0l0,.06a1,1,0,0,1-.19.23,2,2,0,0,1-.21.17,3.77,3.77,0,0,1-.5.29l0,0c-.18.09-.4.18-.64.27l-.64.23a16.37,16.37,0,0,0-8.49,7.5l0,.08a1.61,1.61,0,0,0-.12.52,3,3,0,0,0,0,.58l0,.21s0,0,0,.06l.1.6.37,2.42,2.65,17v0c0,.12,0,.23,0,.35,0,.36.11.72.15,1.08l0,.12c1.46,10.71,2.93,21.41,4.91,31.94,0,0,0,.09,0,.14l.41,2.67c.13.64.24,1.28.37,1.91l0,0c10-21.07,19-42.58,28.44-63.92a20.56,20.56,0,0,0-5.22-20.84A19.37,19.37,0,0,0,121.46,5.22Z"/><path id="path6970-1" class="cls-73" d="M143,41.88l-29,64.18c19.56-12.67,39.44-26.65,59-40a19,19,0,0,0,6.36-20A19.79,19.79,0,0,0,143,41.88"/><path id="path6972-5" class="cls-73" d="M194.25,87.22c3,6.2,1.85,14.71-2.48,20A20.69,20.69,0,0,1,175,114.85l-64.79.05,54.27-36.64A21.54,21.54,0,0,1,183.64,77a20.77,20.77,0,0,1,10.62,10.2"/><g class="cls-74"><path id="path4494-2" data-name="path4494" class="cls-73" d="M143,41.88l-29,64.18c19.56-12.67,39.44-26.65,59-40a19,19,0,0,0,6.36-20A19.79,19.79,0,0,0,143,41.88"/></g><g class="cls-75"><path id="path6981-8-2" data-name="path6981-8" class="cls-73" d="M5.75,87.22c-3,6.2-1.85,14.71,2.48,20A20.69,20.69,0,0,0,25,114.85l64.79.05L35.52,78.26A21.54,21.54,0,0,0,16.36,77,20.77,20.77,0,0,0,5.75,87.22"/></g><g class="cls-76"><path id="path7368-3-2" data-name="path7368-3" class="cls-73" d="M194.25,87.22c3,6.2,1.85,14.71-2.48,20A20.69,20.69,0,0,1,175,114.85l-64.79.05,54.27-36.64A21.54,21.54,0,0,1,183.64,77a20.77,20.77,0,0,1,10.62,10.2"/></g><g class="cls-77"><path id="path3122-4-2" data-name="path3122-4" class="cls-73" d="M57,41.88,86,106C66.16,93.28,45.82,80.07,26.57,66.79c-6-5-7.94-13.2-5.92-20.74A19.79,19.79,0,0,1,57,41.88"/></g><g class="cls-78"><path id="path3458-3-2" data-name="path3458-3" class="cls-73" d="M95.21,15.21a21.08,21.08,0,0,1,2.52,13.17c-4.07,22.27-6,45.19-10.42,67.28-10-21.09-19.05-42.61-28.46-64a20.53,20.53,0,0,1,5.21-20.82A19.74,19.74,0,0,1,85.6,6.78a21.59,21.59,0,0,1,9.61,8.43"/></g><g class="cls-79"><path id="path3162-2-2" data-name="path3162-2" class="cls-73" d="M121.45,5.23a19.34,19.34,0,0,0-7.06,1.55,21.57,21.57,0,0,0-9.61,8.43A22.06,22.06,0,0,0,102,25.41h10.15c1.37.25,2.75.9,2.34,1.7,0,0,0,0,0,0l0,.06a1,1,0,0,1-.19.23,2,2,0,0,1-.21.17,3.77,3.77,0,0,1-.5.29l0,0c-.18.09-.4.18-.64.27l-.64.23a16.37,16.37,0,0,0-8.49,7.5l0,.08a1.61,1.61,0,0,0-.12.52,3,3,0,0,0,0,.58l0,.21a.29.29,0,0,0,0,.06l.1.6.37,2.42,2.65,17.07.19,1.43,5.36,34.86c.13.64.24,1.28.37,1.91l0,0c10-21.07,19-42.58,28.44-63.92a20.56,20.56,0,0,0-5.22-20.84,19.37,19.37,0,0,0-14.48-5.63Z"/></g><g class="cls-80"><path id="path4471-7-2" data-name="path4471-7" class="cls-73" d="M94.82,15.9a20.63,20.63,0,0,1,2.47,12.89c-4,21.8-5.84,44.22-10.2,65.84C77.32,74,68.44,52.93,59.23,32a20.09,20.09,0,0,1,5.1-20.38,19.32,19.32,0,0,1,21.07-4,21.13,21.13,0,0,1,9.41,8.25"/></g><g class="cls-81"><path id="path4529-6-2" data-name="path4529-6" class="cls-73" d="M121.18,6.14a18.8,18.8,0,0,0-6.88,1.51,21.15,21.15,0,0,0-9.42,8.26A21.9,21.9,0,0,0,102.23,25h10.32c3.53,1,3.15,2.47.17,3.65-4.24,1.32-6.82,4.52-9,8,3.11,19.28,5,38.9,8.84,57.91C122.38,74,131.27,52.92,140.48,32a20.09,20.09,0,0,0-5.1-20.38,19,19,0,0,0-14.19-5.51ZM102.23,26.57c0,.38,0,.76.06,1.14l0-1.14Z"/></g><g class="cls-75"><path id="path6995-6-2" data-name="path6995-6" class="cls-73" d="M5.75,87.22c-3,6.2-1.85,14.71,2.48,20A20.69,20.69,0,0,0,25,114.85l64.79.05L35.52,78.26A21.54,21.54,0,0,0,16.36,77,20.77,20.77,0,0,0,5.75,87.22"/></g><g class="cls-82"><path id="path7390-9-2" data-name="path7390-9" class="cls-73" d="M194.24,87.22c3,6.2,1.85,14.71-2.48,20A20.69,20.69,0,0,1,175,114.85l-64.79.05,54.27-36.64A21.54,21.54,0,0,1,183.63,77a20.77,20.77,0,0,1,10.62,10.2"/></g><g class="cls-74"><path id="path3462-5-2" data-name="path3462-5" class="cls-73" d="M143,41.88l-29,64.18c19.56-12.67,39.44-26.65,59-40a19,19,0,0,0,6.36-20A19.79,19.79,0,0,0,143,41.88"/></g><g class="cls-78"><path id="path3468-8-2" data-name="path3468-8" class="cls-73" d="M95.21,15.21a21.08,21.08,0,0,1,2.52,13.17c-4.07,22.27-6,45.19-10.42,67.28-10-21.09-19.05-42.61-28.46-64a20.53,20.53,0,0,1,5.21-20.82A19.74,19.74,0,0,1,85.6,6.78a21.59,21.59,0,0,1,9.61,8.43"/></g><g class="cls-79"><path id="path3172-3-2" data-name="path3172-3" class="cls-73" d="M121.45,5.23a19.34,19.34,0,0,0-7.06,1.55,21.57,21.57,0,0,0-9.61,8.43A22.06,22.06,0,0,0,102,25.41h10.15c1.37.25,2.75.9,2.34,1.7,0,0,0,0,0,0l0,.06a1,1,0,0,1-.19.23,2,2,0,0,1-.21.17,3.77,3.77,0,0,1-.5.29l0,0c-.18.09-.4.18-.64.27l-.64.23a16.37,16.37,0,0,0-8.49,7.5l0,.08a1.61,1.61,0,0,0-.12.52,3,3,0,0,0,0,.58l0,.21a.29.29,0,0,0,0,.06l.1.6.37,2.42,2.65,17.07.19,1.43,5.36,34.86c.13.64.24,1.28.37,1.91l0,0c10-21.07,19-42.58,28.44-63.92a20.56,20.56,0,0,0-5.22-20.84,19.37,19.37,0,0,0-14.48-5.63Z"/></g><g class="cls-77"><path id="path4015-8-2" data-name="path4015-8" class="cls-73" d="M57,41.88,86,106C66.16,93.28,45.82,80.07,26.57,66.79c-6-5-7.94-13.2-5.92-20.74A19.79,19.79,0,0,1,57,41.88"/></g><g class="cls-83"><path id="path4079-0-2" data-name="path4079-0" class="cls-73" d="M39.5,32.66c-2.82,0-7.36.92-9.81,2.49-5.43,3.06-9.85,9.46-7.79,14.51H21c8.38-.17,21.22-3.23,27.39.33,13.91,11.14,23.84,33.49,33,46.56l-25.15-54a18.14,18.14,0,0,0-16.54-9.86Z"/></g><g class="cls-84"><path id="path3693-9-2" data-name="path3693-9" class="cls-73" d="M175.12,76.46a18.76,18.76,0,0,1,8,1.59c4.78,2.27,8,5.61,9.22,8.59.28.58.25,1.9.45,2.52-10.2-8.21-21.6-4.72-34.75,1.77-15.2,7.84-30.81,16-43.87,22.76,15.3-10.6,34.26-23.25,50.85-34.45a19.8,19.8,0,0,1,10.07-2.76Z"/></g><g class="cls-85"><path id="path3626-4-2" data-name="path3626-4" class="cls-73" d="M25,76.46A18.76,18.76,0,0,0,17,78c-5.12,2-11.1,8.36-9.94,11.07,9.87-3.13,25.2-3,35,1.81,15.2,7.84,30.81,16,43.87,22.76-15.3-10.6-34.26-23.25-50.85-34.45A19.8,19.8,0,0,0,25,76.46Z"/></g><g class="cls-86"><path id="path3924-5-2" data-name="path3924-5" class="cls-73" d="M39.46,32.66c-2.14,0-6.8.7-9.24,2.26C25.66,38,24,40.61,22.44,46.39a20.81,20.81,0,0,0-.58,3.27l.1-.12c8.38-.17,20.2-3.12,26.37.45,13.91,11.14,23.84,33.49,33,46.56l-25.15-54A18.47,18.47,0,0,0,39.46,32.66Z"/></g><g class="cls-87"><path id="path3960-1-2" data-name="path3960-1" class="cls-73" d="M39.5,32.66c-2.14,0-6.8.7-9.24,2.26C25.7,38,24.09,40.61,22.49,46.39a20.82,20.82,0,0,0-.58,3.27l.1-.12c8.38-.17,20.2-3.12,26.37.45,13.91,11.14,23.84,33.49,33,46.56l-25.15-54A18.47,18.47,0,0,0,39.5,32.66Z"/></g><g class="cls-88"><path id="path3993-3-2" data-name="path3993-3" class="cls-73" d="M160.43,32.66c2.14,0,6.8.7,9.24,2.26,4.56,3.06,6.17,5.68,7.77,11.47a20.82,20.82,0,0,1,.58,3.27l-.1-.12c-8.38-.17-20.2-3.12-26.37.45-13.91,11.14-23.84,33.49-33,46.56l25.15-54a18.47,18.47,0,0,1,16.76-9.86Z"/></g><g class="cls-89"><path id="path4003-2-2" data-name="path4003-2" class="cls-73" d="M160.44,32.66c2.14,0,6.8.7,9.24,2.26,4.56,3.06,6.17,5.68,7.77,11.47a20.82,20.82,0,0,1,.58,3.27l-.1-.12c-8.38-.17-20.2-3.12-26.37.45-13.91,11.14-23.84,33.49-33,46.56l25.15-54a18.47,18.47,0,0,1,16.76-9.86Z"/></g><g class="cls-85"><path id="path4045-8-2" data-name="path4045-8" class="cls-73" d="M25,76.46A18.76,18.76,0,0,0,17,78c-5.12,2-11.1,8.36-9.94,11.07,9.87-3.13,25.2-3,35,1.81,15.2,7.84,30.81,16,43.87,22.76-15.3-10.6-34.26-23.25-50.85-34.45A19.8,19.8,0,0,0,25,76.46Z"/></g><g class="cls-90"><path id="path4057-1-2" data-name="path4057-1" class="cls-73" d="M23.83,77a32.79,32.79,0,0,0-8.76,1.19c-4.83,2.1-10,8.93-9.48,11.46,9.87-3.13,25.48-3,35.29,1.81,15.2,7.84,30.81,16,43.87,22.76-15.3-10.6-34.26-23.25-50.85-34.45A19.8,19.8,0,0,0,23.83,77Z"/></g><g class="cls-91"><path id="path4075-6-2" data-name="path4075-6" class="cls-73" d="M176.15,77a32.79,32.79,0,0,1,8.76,1.19c4.83,2.1,10,8.93,9.48,11.46-9.87-3.13-25.48-3-35.29,1.81-15.2,7.84-30.81,16-43.87,22.76,15.3-10.6,34.26-23.25,50.85-34.45A19.8,19.8,0,0,1,176.15,77Z"/></g><g class="cls-92"><path id="path4091-4-2" data-name="path4091-4" class="cls-73" d="M160.42,32.66c2.82,0,7.36.92,9.81,2.49,5.43,3.06,9.85,9.46,7.79,14.51h.92c-8.38-.17-21.22-3.23-27.39.33-13.91,11.14-23.84,33.49-33,46.56l25.15-54a18.14,18.14,0,0,1,16.54-9.86Z"/></g><g class="cls-87"><path id="path4480-2" data-name="path4480" class="cls-73" d="M39.5,32.66c-2.14,0-6.8.7-9.24,2.26C25.7,38,24.09,40.61,22.49,46.39a20.82,20.82,0,0,0-.58,3.27l.1-.12c8.38-.17,20.2-3.12,26.37.45,13.91,11.14,23.84,33.49,33,46.56l-25.15-54A18.47,18.47,0,0,0,39.5,32.66Z"/></g><g class="cls-93"><path id="path4490-2" data-name="path4490" class="cls-73" d="M160.41,32.66c2.14,0,6.8.7,9.24,2.26,4.56,3.06,6.17,5.68,7.77,11.47a20.82,20.82,0,0,1,.58,3.27l-.1-.12c-8.38-.17-20.2-3.12-26.37.45-13.91,11.14-23.84,33.49-33,46.56l25.15-54a18.47,18.47,0,0,1,16.76-9.86Z"/></g><g class="cls-94"><path id="path4487-7-2" data-name="path4487-7" class="cls-73" d="M77.1,6.14a18.82,18.82,0,0,0-12.76,5.51C60,16,58.49,21.88,59.47,28c8,3.07,20.67,3.59,37.62,1.76h0c.06-.31.1-.62.15-.93a20.65,20.65,0,0,0-2.47-12.9,21.11,21.11,0,0,0-9.4-8.26A19.05,19.05,0,0,0,77.1,6.14Z"/></g><g class="cls-95"><path id="path4648-4-2" data-name="path4648-4" class="cls-73" d="M121.7,6.12a18.93,18.93,0,0,0-7.25,1.53,21.11,21.11,0,0,0-9.4,8.26,21.94,21.94,0,0,0-2.65,9.16H112.6c5,1.58.87,3.39-.73,3.94a11.55,11.55,0,0,0-2.59,1.31c13.73,1,24.19.31,31.13-2.36,1-6.09-.5-11.93-4.87-16.32a18.82,18.82,0,0,0-12.76-5.51C122.41,6.12,122.06,6.11,121.7,6.12Z"/></g></g></svg>