<svg xmlns="http://www.w3.org/2000/svg" viewBox="0 0 609.88 128.59"><defs><style>.cls-1{fill:#6a747c;}</style></defs><title>nw</title><g id="Layer_2" data-name="Layer 2"><path class="cls-1" d="M194.23,9.31h14.26l17.25,36.21V9.31h9.16v46H221.34L203.52,17.13V55.32h-9.29Z"/><path class="cls-1" d="M256.22,22.42c11.65,0,16.68,7.89,16.68,16.87S267.67,56.47,256,56.47c-9.16,0-16.42-5.66-16.42-16.93C239.6,31.77,243.55,22.42,256.22,22.42Zm.13,27.49c4.14,0,6.94-2.48,6.94-11,0-4.26-.83-10.18-7.06-10.18-6.87,0-6.94,8-6.94,10.88C249.28,46.79,251.7,49.91,256.34,49.91Z"/><path class="cls-1" d="M277.72,31.07c0-1.53-.25-6.17-.44-8h8.85l.19,6.17c1.21-2.74,3.31-6.62,10.95-6.24v8.47c-9.55-.89-10.12,4-10.12,8V55.32h-9.42Z"/><path class="cls-1" d="M323.75,54.88a29.23,29.23,0,0,1-7.32,1c-9.48,0-9.48-6-9.48-8.66V29.61h-6.17V23.37h6.17v-6.3l9.36-3.44v9.74h7.64v6.24H316.3V44.12c.06,2.93.06,4.77,4.26,4.77a23.82,23.82,0,0,0,3.18-.19Z"/><path class="cls-1" d="M329.54,9.37h9.36v18.2a10.38,10.38,0,0,1,9.29-4.84,11.59,11.59,0,0,1,9.36,4.33c1.15,1.59,2.1,4.52,2.1,8.72V55.32h-9.36V36.1c0-1.85,0-7-5.28-7-2.67,0-6,1.53-6,6.56L339,55.32h-9.48Z"/><path class="cls-1" d="M372.12,23.18,378,47.43l6.81-24.25h10.37L402,47.43l6.3-24.25h9.36l-11,32.14H396.36l-6.62-23.8L383,55.32H372.63l-10.5-32.14Z"/><path class="cls-1" d="M427.18,41.64c0,2.1,0,8.59,6.56,8.59,2.36,0,4.71-.89,5.6-4.45h8.59a10.76,10.76,0,0,1-3.05,7c-2.36,2.48-6.56,3.75-11.26,3.75-2.74,0-8-.51-11.33-4-2.93-3.05-4.14-7.38-4.14-12.54s1.27-11.46,6.68-15.21a16.12,16.12,0,0,1,9-2.67c4.58,0,10.06,1.78,13,7.76,2.16,4.39,2,9.1,1.91,11.78Zm12-5.92c0-1.46-.13-7.19-5.6-7.19-4.14,0-5.86,3.44-6,7.19Z"/><path class="cls-1" d="M461.55,46c.13,2,1.4,4.39,5.35,4.39,3.37,0,5-1.91,5-3.82,0-1.46-.76-2.61-4.46-3.63l-5.85-1.59c-2.61-.76-8.15-2.36-8.15-8.91,0-6.24,5.73-10.06,14.07-10.06,6.62,0,12,3.05,12.22,9.48h-8.59c-.25-3.56-3.12-3.82-4.58-3.82-2.55,0-4.45,1.21-4.45,3.18,0,2.16,1.59,2.61,4.39,3.37l5.79,1.59c5.86,1.59,8.59,4.58,8.59,9,0,5.54-4.77,11.07-14.77,11.07-4.14,0-8.08-.89-11-3.95A9.18,9.18,0,0,1,452.7,46Z"/><path class="cls-1" d="M505.71,54.88a29.23,29.23,0,0,1-7.32,1c-9.48,0-9.48-6-9.48-8.66V29.61h-6.17V23.37h6.17v-6.3l9.36-3.44v9.74h7.64v6.24h-7.64V44.12c.06,2.93.06,4.77,4.26,4.77a23.79,23.79,0,0,0,3.18-.19Z"/><path class="cls-1" d="M517.88,41.64c0,2.1,0,8.59,6.55,8.59,2.36,0,4.71-.89,5.6-4.45h8.59a10.76,10.76,0,0,1-3.05,7c-2.35,2.48-6.56,3.75-11.27,3.75-2.74,0-8-.51-11.33-4-2.93-3.05-4.14-7.38-4.14-12.54s1.27-11.46,6.68-15.21a16.12,16.12,0,0,1,9-2.67c4.58,0,10.06,1.78,13,7.76,2.16,4.39,2,9.1,1.91,11.78Zm12-5.92c0-1.46-.13-7.19-5.6-7.19-4.14,0-5.86,3.44-6,7.19Z"/><path class="cls-1" d="M545.06,31.07c0-1.53-.25-6.17-.44-8h8.85l.19,6.17c1.21-2.74,3.31-6.62,10.95-6.24v8.47c-9.55-.89-10.12,4-10.12,8V55.32h-9.42Z"/><path class="cls-1" d="M569.17,28.91c0-.13,0-3.63-.19-5.85h9l.25,4.84c.89-1.46,3.44-5.6,10.44-5.6,6.3,0,9,3.82,9.8,6,.7,2,.89,3.63.89,9.61V55.32h-9.61v-20a7.68,7.68,0,0,0-.51-3.5,4.91,4.91,0,0,0-4.58-2.74,5.85,5.85,0,0,0-4.9,2.48,8.79,8.79,0,0,0-1.15,4.9V55.32h-9.48Z"/><path class="cls-1" d="M194.23,118.33v-46h6.62l17.25,40,17.63-40H242v46h-4.14V75.88h-.13l-17.57,42.45h-4.14L198.49,76.07h-.13v42.26Z"/><path class="cls-1" d="M252.59,103.25c.13,6.81,3.25,12.54,11.07,12.54a9.52,9.52,0,0,0,9.23-7.64h4c-2,7.64-6.75,11.14-14.45,11.14-9.55,0-14-8.21-14-16.93s4.77-16.93,14.26-16.93c10.69,0,14.57,7.83,14.57,17.82Zm20.56-3.5c-.45-6.17-3.75-10.82-10.37-10.82-6.24,0-9.55,5.22-10.06,10.82Z"/><path class="cls-1" d="M306.94,113.62l-.13-.25a13,13,0,0,1-10.95,5.92c-9.48,0-13.11-9-13.11-17.06,0-8.27,3.63-16.8,13.11-16.8,4.26,0,8.72,2,10.95,5.79l.13-.13V72.38h3.82v38.76c0,2.48.19,5,.32,7.19h-3.95ZM296.5,88.93c-7.26,0-9.61,6.75-9.61,12.86,0,5.92,1.72,14,9,14,8.34,0,10.88-6.94,10.88-14.19C306.81,95.1,303.94,88.93,296.5,88.93Z"/><path class="cls-1" d="M323.86,77.16h-4.45V72.38h4.45Zm-.32,9.23v31.95h-3.82V86.38Z"/><path class="cls-1" d="M353.46,96.18c-.32-4.9-3.44-7.25-8.72-7.25-5.86,0-9.48,6.11-9.48,13.36s3.63,13.49,9.48,13.49c5,0,8.4-3.05,8.72-7.45h4.14c-1,7.32-5.22,10.95-12.47,10.95-9.55,0-14-8.21-14-16.93s4.77-16.93,14.26-16.93c6.56,0,11.9,3.95,12.22,10.75Z"/><path class="cls-1" d="M368.67,77.16h-4.46V72.38h4.46Zm-.32,9.23v31.95h-3.82V86.38Z"/><path class="cls-1" d="M381.77,118.33H378V93.58c0-2.48-.19-5-.32-7.19h3.95l.19,4.71.13.13a11,11,0,0,1,10-5.79c10.44,0,11.27,9.23,11.27,12.92v20h-3.82V97.71c0-5.54-3.18-8.78-8.4-8.78-6.3,0-9.16,5.28-9.16,11Z"/><path class="cls-1" d="M413.34,103.25c.13,6.81,3.25,12.54,11.07,12.54a9.52,9.52,0,0,0,9.23-7.64h4c-2,7.64-6.75,11.14-14.45,11.14-9.55,0-14-8.21-14-16.93S414,85.43,423.46,85.43c10.69,0,14.57,7.83,14.57,17.82Zm20.56-3.5c-.45-6.17-3.75-10.82-10.37-10.82-6.24,0-9.55,5.22-10.06,10.82Z"/><polygon class="cls-1" points="22.32 25.84 72.2 118.44 99.9 118.44 42.29 9.41 10.48 9.41 10.48 118.44 22.32 118.44 22.32 25.84"/><polygon class="cls-1" points="139.4 118.44 163.93 118.44 163.93 9.41 139.44 9.41 110.61 61.26 83.18 9.41 55.14 9.41 102.95 99.73 139.44 33.9 139.4 118.44"/><path class="cls-1" d="M443.93,77.15a5.2,5.2,0,1,0,5.19,5.19A5.2,5.2,0,0,0,443.93,77.15Zm0,9.66a4.46,4.46,0,1,1,4.45-4.48A4.47,4.47,0,0,1,443.93,86.81Z"/><path class="cls-1" d="M445.93,83.72c-.05-.6-.18-1.12-.8-1.26v0a1.47,1.47,0,0,0,.93-1.55,1.5,1.5,0,0,0-1.62-1.6h-2.5v6.11h.71V82.79h1.73c.68,0,.81.51.89,1.11s0,1.26.19,1.51h.79A3.52,3.52,0,0,1,445.93,83.72Zm-1.81-1.61h-1.48V80h1.76c.66,0,.95.44.95,1C445.35,81.91,444.78,82.11,444.12,82.11Z"/></g></svg>